<!DOCTYPE svg PUBLIC "-//W3C//DTD SVG 20010904//EN" "http://www.w3.org/TR/2001/REC-SVG-20010904/DTD/svg10.dtd">
<svg version="1.0" xmlns="http://www.w3.org/2000/svg" width="404px" height="415px" viewBox="0 0 4040 4150" preserveAspectRatio="xMidYMid meet">
<g id="layer101" fill="#030303" stroke="none">
<path d="M1027 4112 c-28 -29 -45 -62 -71 -137 -125 -372 -288 -529 -626 -605 -47 -11 -118 -20 -158 -20 -73 0 -73 0 -120 -45 l-47 -45 56 -52 c31 -29 83 -78 116 -108 95 -88 189 -243 224 -370 17 -64 15 -186 -6 -255 -19 -67 -78 -172 -127 -226 -18 -20 -69 -63 -113 -97 -44 -33 -96 -76 -114 -96 l-35 -36 34 -35 c18 -19 50 -40 69 -46 49 -16 106 -44 173 -87 138 -89 185 -290 114 -492 -38 -109 -124 -245 -239 -382 -116 -137 -152 -186 -144 -194 3 -3 48 -9 100 -14 261 -25 357 -63 501 -199 68 -66 103 -112 171 -234 28 -49 55 -89 60 -88 6 0 71 46 146 101 149 109 248 164 361 201 61 20 93 24 193 24 105 0 127 -3 172 -24 154 -69 249 -187 337 -420 57 -148 41 -142 158 -55 56 41 133 91 171 111 194 97 564 176 876 186 l73 2 -92 125 c-103 140 -119 167 -149 260 -45 136 -23 276 60 373 98 115 371 218 639 242 152 14 196 25 226 56 l29 30 -36 32 c-19 18 -63 51 -96 75 -77 55 -173 151 -226 229 -57 81 -122 222 -148 318 -29 110 -32 315 -5 430 41 177 123 363 232 525 30 45 54 85 54 89 0 4 -17 23 -37 43 -36 33 -43 36 -123 42 -219 17 -433 87 -590 191 -71 47 -98 78 -144 160 -54 98 -78 170 -96 294 l-19 125 -46 45 -46 46 -92 -97 c-231 -243 -472 -352 -740 -335 -245 16 -477 138 -712 376 -55 56 -102 101 -105 101 -3 0 -23 -17 -43 -38z"/>
</g>
<g id="layer102" fill="#ab1e1e" stroke="none">
<path d="M1024 3988 c-142 -427 -422 -664 -824 -698 -58 -5 -116 -13 -129 -18 -24 -9 -24 -9 20 -39 102 -71 260 -257 323 -380 59 -117 73 -266 36 -387 -40 -127 -172 -285 -338 -404 l-65 -46 63 -23 c86 -32 218 -120 262 -174 68 -82 91 -143 96 -246 4 -79 1 -105 -21 -175 -46 -146 -141 -292 -318 -487 -52 -56 -95 -107 -97 -112 -2 -5 32 -9 75 -9 305 -2 549 -164 702 -467 17 -35 35 -63 39 -63 4 1 68 46 142 100 235 173 395 236 579 228 65 -3 114 -12 151 -26 137 -53 251 -193 335 -408 27 -69 53 -128 58 -131 4 -2 50 27 100 66 157 120 348 195 622 246 127 23 302 43 419 48 l59 2 -85 115 c-97 131 -127 185 -158 289 -73 239 71 438 395 546 97 32 174 48 348 75 138 21 197 36 197 49 0 5 -25 25 -56 45 -86 57 -274 250 -332 340 -161 248 -194 541 -96 835 34 103 113 266 185 383 32 53 59 101 59 107 0 6 -20 11 -47 11 -27 0 -93 7 -148 15 -489 74 -749 296 -815 700 -19 116 -28 148 -39 143 -4 -2 -36 -34 -71 -73 -186 -204 -414 -333 -624 -354 -292 -29 -552 86 -847 376 l-117 115 -38 -114z m166 -61 c174 -167 351 -276 535 -329 114 -33 315 -33 429 0 162 47 323 146 465 288 52 52 95 93 97 92 1 -2 7 -47 13 -100 12 -102 28 -152 85 -267 117 -231 373 -390 721 -446 49 -8 107 -15 127 -15 20 0 40 -4 43 -10 3 -5 -14 -43 -38 -83 -102 -168 -181 -356 -213 -507 -27 -129 -23 -309 9 -431 28 -106 76 -213 138 -307 56 -85 186 -221 276 -289 41 -31 72 -57 70 -59 -2 -3 -64 -11 -137 -20 -552 -64 -853 -302 -786 -623 20 -95 79 -215 156 -315 33 -44 60 -81 60 -83 0 -2 -12 -2 -27 -2 -17 1 -21 3 -10 6 9 2 17 6 17 8 0 2 -30 43 -67 92 -164 218 -198 433 -92 588 126 186 410 321 758 360 l64 7 -64 56 c-478 417 -555 889 -237 1455 28 49 48 90 46 93 -3 2 -54 13 -115 24 -284 51 -456 140 -632 326 -114 121 -189 257 -216 397 l-6 28 -72 -67 c-273 -253 -554 -338 -857 -260 -92 24 -273 113 -355 176 -38 29 -114 96 -167 148 l-98 96 -11 -32 c-20 -57 -88 -192 -126 -250 -55 -83 -246 -276 -327 -329 -39 -25 -97 -58 -131 -73 -61 -28 -215 -70 -256 -70 -19 0 -9 -14 58 -82 131 -136 209 -269 238 -404 19 -87 18 -133 0 -213 -28 -115 -77 -192 -217 -335 -69 -72 -126 -131 -125 -131 1 -1 34 -24 73 -53 220 -160 298 -330 249 -539 -34 -143 -147 -329 -295 -487 -49 -52 -90 -97 -90 -100 0 -2 37 -9 83 -16 90 -13 199 -54 274 -103 112 -74 262 -239 331 -365 l27 -49 115 85 c106 77 190 130 190 117 0 -2 -17 -13 -38 -24 -21 -11 -91 -59 -156 -106 -64 -48 -118 -86 -120 -84 -2 2 -17 31 -35 65 -46 88 -149 214 -228 279 -119 99 -232 144 -433 172 l-55 8 69 74 c148 161 256 327 303 466 23 66 28 97 28 180 0 92 -3 105 -32 168 -18 38 -47 86 -63 107 -43 54 -142 127 -224 165 l-70 32 75 55 c134 99 259 256 295 373 25 78 29 199 10 275 -37 146 -142 309 -281 437 -40 37 -74 73 -74 78 -1 6 30 11 71 12 40 1 117 13 170 26 314 82 557 327 669 676 13 39 25 71 27 71 2 0 53 -46 112 -103z m1601 -906 c224 -61 489 -233 549 -357 21 -42 22 -55 16 -144 -22 -313 -109 -675 -226 -940 -64 -145 -93 -189 -172 -266 -76 -73 -198 -144 -338 -197 -65 -24 -194 -57 -225 -57 -9 0 -43 26 -76 57 l-59 56 -250 0 -249 0 -56 -51 c-53 -49 -58 -51 -98 -45 -72 10 -217 61 -337 120 -134 65 -230 149 -285 248 -132 240 -254 702 -280 1061 -9 130 1 158 82 234 165 155 387 253 595 265 l83 5 -80 -15 c-247 -47 -435 -137 -582 -278 -61 -58 -63 -62 -63 -111 0 -28 7 -105 15 -171 47 -374 126 -659 260 -931 60 -124 67 -133 120 -169 137 -90 312 -163 455 -187 71 -12 72 -12 91 12 22 29 24 39 7 44 -159 42 -273 92 -379 164 -134 91 -145 107 -44 58 263 -127 455 -170 750 -170 295 0 491 44 748 170 48 23 87 41 87 39 0 -2 -36 -31 -81 -65 -95 -71 -231 -139 -344 -171 -44 -12 -84 -26 -88 -30 -5 -4 -1 -19 8 -33 21 -32 50 -33 158 -6 138 35 243 82 385 173 62 40 65 43 128 171 133 272 212 557 259 931 8 66 15 143 15 171 0 49 -2 53 -63 111 -156 150 -405 262 -622 280 l-71 6 -42 -57 c-49 -64 -59 -86 -42 -86 7 0 48 -16 92 -35 98 -42 224 -125 303 -200 60 -56 60 -56 14 -26 -67 43 -212 115 -297 145 -41 14 -131 38 -200 53 -115 24 -147 27 -347 27 -200 0 -232 -3 -347 -27 -69 -15 -159 -39 -200 -53 -87 -32 -233 -103 -297 -146 l-46 -31 25 27 c58 64 290 226 323 226 6 0 -27 -23 -74 -50 -46 -28 -99 -64 -118 -79 -29 -24 -18 -20 65 20 212 105 480 157 746 145 114 -5 294 -28 335 -43 14 -5 13 -1 -5 20 -18 19 -22 31 -16 49 12 39 49 91 94 132 l43 39 86 -6 c47 -3 120 -15 162 -26z m-1226 -101 c3 -5 4 -10 1 -10 -3 0 -8 5 -11 10 -3 6 -4 10 -1 10 3 0 8 -4 11 -10z m-20 -80 c-27 -11 -52 -20 -55 -19 -11 2 76 38 90 38 8 0 -7 -9 -35 -19z m113 -440 c-74 -14 -116 -40 -132 -81 -20 -50 -20 -141 -1 -207 14 -47 19 -52 55 -63 31 -10 52 -9 95 0 49 11 58 17 74 49 44 86 35 205 -21 268 -38 43 -20 44 28 2 101 -89 102 -279 3 -363 -67 -56 -167 -58 -232 -4 -57 47 -81 101 -81 184 -1 78 20 129 71 177 37 36 68 47 128 46 49 0 49 0 13 -8z m744 -1 c-98 -19 -142 -71 -142 -170 0 -30 7 -79 16 -108 12 -43 21 -55 50 -68 30 -15 43 -15 92 -5 63 13 86 33 102 90 24 88 5 179 -47 235 -37 37 -12 34 32 -5 57 -50 80 -101 79 -183 -1 -117 -67 -207 -162 -221 -126 -19 -223 77 -223 219 0 139 77 227 196 226 l50 -1 -43 -9z m-824 -1766 c-15 -2 -42 -2 -60 0 -18 2 -6 4 27 4 33 0 48 -2 33 -4z m-115 -10 c-7 -2 -21 -2 -30 0 -10 3 -4 5 12 5 17 0 24 -2 18 -5z m190 0 c-7 -2 -21 -2 -30 0 -10 3 -4 5 12 5 17 0 24 -2 18 -5z m-246 -9 c-3 -3 -12 -4 -19 -1 -8 3 -5 6 6 6 11 1 17 -2 13 -5z m351 -24 c34 -16 62 -32 62 -35 0 -3 -19 4 -42 16 -23 12 -58 27 -77 34 -20 8 -29 14 -21 14 8 1 43 -12 78 -29z m-418 5 c-46 -18 -64 -17 -25 0 17 8 37 14 45 14 8 0 -1 -7 -20 -14z m-80 -30 c-14 -8 -29 -14 -35 -14 -5 0 1 6 15 14 14 8 30 14 35 14 6 0 -1 -6 -15 -14z m-50 -19 c0 -2 -7 -7 -16 -10 -8 -3 -12 -2 -9 4 6 10 25 14 25 6z m746 -115 c42 -53 114 -179 114 -197 0 -5 -18 24 -39 63 -48 92 -80 134 -150 202 -50 49 -51 51 -12 21 24 -19 63 -59 87 -89z m1202 -18 c-15 -2 -42 -2 -60 0 -18 2 -6 4 27 4 33 0 48 -2 33 -4z m-110 -10 c-10 -2 -26 -2 -35 0 -10 3 -2 5 17 5 19 0 27 -2 18 -5z m-80 -10 c-10 -2 -26 -2 -35 0 -10 3 -2 5 17 5 19 0 27 -2 18 -5z m-65 -10 c-7 -2 -21 -2 -30 0 -10 3 -4 5 12 5 17 0 24 -2 18 -5z m-60 -10 c-7 -2 -19 -2 -25 0 -7 3 -2 5 12 5 14 0 19 -2 13 -5z m-50 -10 c-7 -2 -19 -2 -25 0 -7 3 -2 5 12 5 14 0 19 -2 13 -5z m-108 -24 c-38 -10 -74 -17 -80 -15 -12 3 103 34 130 34 11 0 -11 -8 -50 -19z m-98 -26 c-4 -3 -10 -3 -14 0 -3 4 0 7 7 7 7 0 10 -3 7 -7z m-30 -10 c-4 -3 -10 -3 -14 0 -3 4 0 7 7 7 7 0 10 -3 7 -7z m-42 -13 c-27 -12 -43 -12 -25 0 8 5 22 9 30 9 10 0 8 -3 -5 -9z m-55 -20 c-8 -5 -19 -10 -25 -10 -5 0 -3 5 5 10 8 5 20 10 25 10 6 0 3 -5 -5 -10z m-41 -14 c-10 -9 -109 -56 -109 -51 0 6 91 54 104 55 5 0 7 -2 5 -4z m-329 -71 c0 -5 -5 -3 -10 5 -5 8 -10 20 -10 25 0 6 5 3 10 -5 5 -8 10 -19 10 -25z m209 11 c-13 -12 -170 -126 -174 -126 -3 0 -5 5 -5 12 0 6 3 9 6 5 3 -3 42 21 86 54 44 32 82 59 86 59 3 0 3 -2 1 -4z m-185 -76 c5 -17 4 -20 -2 -10 -5 8 -13 26 -16 40 -5 17 -4 20 2 10 5 -8 13 -26 16 -40z"/>
</g>
<g id="layer103" fill="#616161" stroke="none">
<path d="M1024 3988 c-142 -427 -422 -664 -824 -698 -58 -5 -116 -13 -129 -18 -24 -9 -24 -9 20 -39 102 -71 260 -257 323 -380 59 -117 73 -266 36 -387 -40 -127 -172 -285 -338 -404 l-65 -46 63 -23 c86 -32 218 -120 262 -174 68 -82 91 -143 96 -246 4 -79 1 -105 -21 -175 -46 -146 -141 -292 -318 -487 -52 -56 -95 -107 -97 -112 -2 -5 32 -9 75 -9 305 -2 549 -164 702 -467 17 -35 35 -63 39 -63 4 1 68 46 142 100 235 173 395 236 579 228 65 -3 114 -12 151 -26 137 -53 251 -193 335 -408 27 -69 53 -128 58 -131 4 -2 50 27 100 66 157 120 348 195 622 246 127 23 302 43 419 48 l59 2 -85 115 c-97 131 -127 185 -158 289 -73 239 71 438 395 546 97 32 174 48 348 75 138 21 197 36 197 49 0 5 -25 25 -56 45 -86 57 -274 250 -332 340 -161 248 -194 541 -96 835 34 103 113 266 185 383 32 53 59 101 59 107 0 6 -20 11 -47 11 -27 0 -93 7 -148 15 -489 74 -749 296 -815 700 -19 116 -28 148 -39 143 -4 -2 -36 -34 -71 -73 -186 -204 -414 -333 -624 -354 -292 -29 -552 86 -847 376 l-117 115 -38 -114z m166 -61 c174 -167 351 -276 535 -329 114 -33 315 -33 429 0 162 47 323 146 465 288 52 52 95 93 97 92 1 -2 7 -47 13 -100 12 -102 28 -152 85 -267 117 -231 373 -390 721 -446 49 -8 107 -15 127 -15 20 0 40 -4 43 -10 3 -5 -14 -43 -38 -83 -102 -168 -181 -356 -213 -507 -27 -129 -23 -309 9 -431 28 -106 76 -213 138 -307 56 -85 186 -221 276 -289 41 -31 72 -57 70 -59 -2 -3 -64 -11 -137 -20 -552 -64 -853 -302 -786 -623 20 -95 79 -215 155 -315 34 -44 59 -81 58 -83 -2 -2 -30 -5 -63 -8 -250 -24 -400 -50 -578 -101 -152 -44 -278 -104 -384 -183 -46 -34 -85 -61 -87 -59 -1 2 -17 41 -35 88 -105 274 -233 408 -437 456 -127 30 -286 3 -444 -76 -97 -48 -142 -77 -257 -163 -51 -38 -94 -68 -96 -66 -2 2 -17 31 -35 65 -46 88 -149 214 -228 279 -119 99 -232 144 -433 172 l-55 8 69 74 c148 161 256 327 303 466 23 66 28 97 28 180 0 92 -3 105 -32 168 -18 38 -47 86 -63 107 -43 54 -142 127 -224 165 l-70 32 75 55 c134 99 259 256 295 373 25 78 29 199 10 275 -37 146 -142 309 -281 437 -40 37 -74 73 -74 78 -1 6 30 11 71 12 40 1 117 13 170 26 314 82 557 327 669 676 13 39 25 71 27 71 2 0 53 -46 112 -103z"/>
</g>
<g id="layer104" fill="#a1a1a1" stroke="none">
<path d="M1030 3993 c-103 -311 -296 -541 -538 -639 -93 -37 -169 -54 -287 -64 -60 -5 -121 -13 -134 -18 -24 -9 -24 -9 20 -39 71 -49 231 -222 283 -305 73 -119 100 -203 100 -318 -1 -79 -5 -107 -27 -164 -50 -127 -159 -255 -315 -369 l-83 -60 78 -31 c235 -94 370 -277 348 -470 -20 -182 -122 -361 -347 -609 l-102 -112 124 -6 c197 -10 316 -60 458 -194 83 -78 148 -164 202 -267 l36 -68 140 101 c323 236 570 292 784 178 72 -38 160 -129 212 -218 20 -35 57 -116 83 -182 31 -80 50 -117 58 -112 7 4 46 33 88 64 136 103 247 154 454 209 158 42 339 70 498 77 75 3 137 9 137 14 0 4 -38 58 -84 121 -96 130 -116 166 -146 266 -18 58 -21 90 -18 150 6 102 35 160 118 242 125 125 335 203 656 244 121 16 184 31 184 46 0 4 -24 23 -52 42 -169 114 -309 271 -393 443 -79 162 -90 209 -90 405 0 149 3 175 27 261 36 130 104 281 193 429 52 88 71 127 62 132 -7 4 -34 8 -62 8 -66 0 -222 26 -315 52 -360 100 -579 332 -620 656 -12 94 -28 155 -39 150 -4 -2 -36 -34 -71 -73 -163 -176 -334 -290 -509 -337 -107 -29 -295 -29 -403 0 -186 50 -346 151 -534 334 -72 70 -134 128 -137 128 -3 0 -20 -44 -37 -97z m157 -60 c275 -257 489 -357 758 -356 247 1 449 94 672 309 53 51 98 93 99 91 1 -1 7 -42 13 -92 43 -326 253 -560 601 -669 92 -29 288 -66 351 -66 21 0 39 -2 39 -5 0 -2 -19 -35 -41 -72 -109 -178 -195 -382 -223 -533 -18 -95 -21 -269 -5 -356 43 -244 187 -470 417 -652 45 -36 80 -67 78 -69 -2 -2 -55 -10 -117 -18 -155 -20 -257 -42 -363 -76 -464 -152 -575 -476 -292 -851 36 -48 66 -91 66 -96 0 -5 -48 -12 -107 -15 -190 -11 -444 -61 -618 -120 -110 -38 -212 -91 -300 -157 -44 -33 -83 -60 -86 -60 -3 0 -25 50 -49 111 -51 131 -101 212 -178 292 -154 157 -356 193 -596 106 -107 -39 -191 -86 -320 -181 -59 -44 -113 -81 -120 -84 -6 -2 -22 17 -35 42 -70 130 -197 273 -315 352 -93 61 -213 102 -327 109 -49 3 -89 8 -89 10 0 3 30 37 66 76 244 266 365 521 336 709 -25 162 -131 290 -320 383 l-63 32 90 71 c225 178 330 399 288 606 -32 155 -117 295 -273 451 -51 51 -90 96 -87 99 4 3 35 6 69 6 74 0 208 29 294 64 244 99 452 339 546 628 15 48 30 85 33 82 4 -3 52 -49 108 -101z"/>
</g>
<g id="layer105" fill="#f2d191" stroke="none">
<path d="M1375 2993 c-265 -59 -428 -137 -572 -276 -61 -58 -63 -62 -63 -111 0 -28 7 -105 15 -171 47 -374 126 -659 260 -931 60 -124 67 -133 120 -169 137 -90 312 -163 455 -187 71 -12 72 -12 91 12 22 29 24 39 7 44 -159 42 -273 92 -379 164 -134 91 -145 107 -44 58 263 -127 455 -170 750 -170 295 0 491 44 748 170 48 23 87 41 87 39 0 -2 -36 -31 -81 -65 -95 -71 -231 -139 -344 -171 -44 -12 -84 -26 -88 -30 -5 -4 -1 -19 8 -33 21 -32 50 -33 158 -6 138 35 243 82 385 173 62 40 65 43 128 171 133 272 212 557 259 931 8 66 15 143 15 171 0 49 -2 53 -63 111 -156 150 -405 262 -622 280 l-71 6 -42 -57 c-49 -64 -59 -86 -42 -86 7 0 48 -16 92 -35 98 -42 224 -125 303 -200 60 -56 60 -56 14 -26 -67 43 -212 115 -297 145 -41 14 -131 38 -200 53 -115 24 -147 27 -347 27 -200 0 -232 -3 -347 -27 -69 -15 -159 -39 -200 -53 -85 -30 -230 -102 -297 -145 -46 -30 -46 -30 14 26 79 75 205 158 303 200 44 19 85 35 92 35 17 0 7 22 -41 85 -41 55 -42 55 -93 54 -28 -1 -60 -3 -71 -6z m338 -597 c74 -31 118 -111 118 -213 0 -229 -260 -307 -363 -110 -30 59 -31 166 -1 222 25 47 68 90 103 104 36 14 106 13 143 -3z m744 3 c38 -14 80 -56 106 -104 30 -56 29 -163 -1 -222 -60 -115 -197 -147 -291 -68 -92 78 -98 258 -13 349 49 52 132 71 199 45z"/>
</g>
<g id="layer106" fill="#f8f8f8" stroke="none">
<path d="M1035 4002 c-128 -401 -377 -639 -738 -707 -47 -9 -96 -13 -110 -10 -14 4 -52 1 -84 -5 l-58 -13 29 -21 c147 -107 275 -254 341 -391 91 -189 87 -339 -15 -510 -47 -79 -167 -199 -269 -270 l-84 -59 64 -23 c86 -32 119 -50 190 -103 154 -117 210 -283 158 -470 -41 -151 -154 -326 -330 -514 -105 -113 -105 -113 21 -114 268 -2 518 -177 662 -464 l33 -66 135 99 c269 197 479 268 671 225 185 -41 314 -178 415 -442 32 -84 51 -121 58 -116 97 74 179 133 211 151 169 98 504 181 815 201 80 5 146 10 148 10 5 0 -61 94 -109 153 -61 76 -105 165 -131 268 -18 74 -19 91 -9 149 43 241 316 402 770 455 127 15 191 30 191 45 0 4 -12 16 -27 25 -193 123 -351 300 -438 489 -97 208 -105 466 -24 707 29 87 136 307 197 404 l50 80 -56 7 c-32 4 -94 12 -140 18 -181 23 -384 96 -508 181 -166 114 -283 312 -305 514 -10 95 -26 158 -38 153 -4 -2 -43 -42 -87 -90 -223 -246 -469 -361 -738 -345 -130 8 -196 26 -332 92 -135 65 -234 138 -385 283 l-116 111 -28 -87z m130 -43 c193 -195 392 -316 603 -365 97 -23 266 -20 367 5 163 42 348 155 502 307 42 41 77 73 78 72 1 -2 8 -39 14 -83 18 -118 37 -180 89 -280 36 -71 64 -108 132 -175 156 -155 342 -235 645 -277 66 -9 122 -18 124 -19 2 -2 -21 -45 -52 -96 -98 -166 -154 -296 -198 -458 -20 -73 -23 -108 -23 -245 1 -145 3 -168 28 -250 67 -222 207 -417 414 -579 34 -27 61 -51 59 -52 -2 -2 -66 -13 -143 -24 -452 -66 -703 -206 -768 -429 -42 -145 7 -312 149 -506 l66 -90 -93 -6 c-199 -14 -473 -67 -642 -126 -128 -44 -210 -87 -310 -163 -44 -33 -80 -59 -82 -57 -1 1 -20 49 -43 107 -54 140 -103 221 -181 301 -111 113 -220 154 -389 146 -171 -8 -317 -70 -530 -226 l-125 -90 -31 57 c-101 188 -273 352 -432 412 -70 26 -188 50 -249 50 -24 0 -44 2 -44 5 0 3 45 57 100 121 224 261 307 434 298 629 -3 71 -10 102 -31 149 -51 110 -135 191 -278 266 l-70 37 68 56 c220 179 312 335 313 524 0 192 -77 343 -280 549 -50 50 -87 94 -83 97 3 4 30 7 59 7 114 0 283 49 404 117 96 55 243 192 303 284 55 85 112 204 142 297 15 45 30 82 33 82 4 0 43 -36 87 -81z"/>
</g>


</svg>