<!DOCTYPE svg PUBLIC "-//W3C//DTD SVG 20010904//EN" "http://www.w3.org/TR/2001/REC-SVG-20010904/DTD/svg10.dtd">
<svg version="1.0" xmlns="http://www.w3.org/2000/svg" width="404px" height="415px" viewBox="0 0 4040 4150" preserveAspectRatio="xMidYMid meet">
<g id="layer101" fill="#030304" stroke="none">
<path d="M1027 4112 c-28 -29 -45 -62 -71 -137 -125 -372 -288 -529 -626 -605 -47 -11 -118 -20 -158 -20 -73 0 -73 0 -120 -45 l-47 -45 56 -52 c31 -29 83 -78 116 -108 95 -88 189 -243 224 -370 17 -64 15 -186 -6 -255 -19 -67 -78 -172 -127 -226 -18 -20 -69 -63 -113 -97 -44 -33 -96 -76 -114 -96 l-35 -36 34 -35 c18 -19 50 -40 69 -46 49 -16 106 -44 173 -87 138 -89 185 -290 114 -492 -38 -109 -124 -245 -239 -382 -116 -137 -152 -186 -144 -194 3 -3 48 -9 100 -14 261 -25 357 -63 501 -199 68 -66 103 -112 171 -234 28 -49 55 -89 60 -88 6 0 71 46 146 101 149 109 248 164 361 201 61 20 93 24 193 24 105 0 127 -3 172 -24 154 -69 249 -187 337 -420 57 -148 41 -142 158 -55 56 41 133 91 171 111 194 97 564 176 876 186 l73 2 -92 125 c-103 140 -119 167 -149 260 -45 136 -23 276 60 373 98 115 371 218 639 242 152 14 196 25 226 56 l29 30 -36 32 c-19 18 -63 51 -96 75 -77 55 -173 151 -226 229 -57 81 -122 222 -148 318 -29 110 -32 315 -5 430 41 177 123 363 232 525 30 45 54 85 54 89 0 4 -17 23 -37 43 -36 33 -43 36 -123 42 -219 17 -433 87 -590 191 -71 47 -98 78 -144 160 -54 98 -78 170 -96 294 l-19 125 -46 45 -46 46 -92 -97 c-231 -243 -472 -352 -740 -335 -245 16 -477 138 -712 376 -55 56 -102 101 -105 101 -3 0 -23 -17 -43 -38z"/>
</g>
<g id="layer102" fill="#ab1e1e" stroke="none">
<path d="M1057 4083 c-2 -5 -19 -53 -37 -108 -118 -361 -356 -594 -679 -666 -47 -10 -109 -19 -138 -19 -29 0 -76 -5 -105 -11 l-53 -12 30 -21 c56 -39 206 -191 255 -256 201 -273 192 -527 -27 -760 -42 -45 -116 -111 -165 -148 l-89 -66 70 -27 c248 -95 380 -284 350 -499 -12 -83 -23 -118 -67 -205 -62 -125 -128 -214 -289 -391 -46 -51 -83 -94 -83 -96 0 -3 53 -7 118 -10 188 -9 318 -63 454 -187 80 -74 153 -171 203 -269 20 -39 39 -72 41 -72 3 0 63 43 134 95 227 167 357 224 528 233 267 13 426 -115 552 -443 24 -60 46 -114 50 -118 4 -5 53 25 109 67 56 41 134 91 174 109 196 93 502 160 791 175 l129 7 -86 115 c-48 63 -100 142 -116 176 -145 298 -20 534 351 658 104 35 181 52 344 76 143 21 204 36 204 49 0 5 -19 21 -42 36 -65 43 -198 159 -245 213 -161 188 -240 373 -250 588 -12 246 60 475 242 775 30 50 55 94 55 100 0 5 -23 9 -51 9 -76 0 -248 28 -347 55 -48 14 -137 50 -197 80 -234 116 -371 300 -410 550 -19 119 -33 177 -43 173 -4 -2 -37 -34 -72 -73 -240 -261 -522 -388 -790 -355 -236 28 -436 137 -666 362 -66 65 -123 118 -127 118 -3 0 -8 -3 -10 -7z m83 -109 c388 -395 803 -503 1180 -309 110 57 238 155 324 245 37 40 69 70 71 68 2 -2 7 -35 10 -73 13 -144 79 -304 173 -420 91 -113 247 -211 427 -270 89 -29 283 -65 351 -65 24 0 44 -2 44 -3 0 -2 -26 -46 -57 -98 -285 -472 -302 -882 -51 -1252 56 -82 167 -198 261 -270 42 -33 76 -62 74 -64 -2 -2 -58 -10 -125 -18 -214 -27 -362 -65 -498 -130 -84 -40 -178 -109 -217 -159 -71 -91 -105 -210 -87 -307 24 -129 60 -207 154 -334 l67 -90 -28 -6 c-15 -4 -55 -7 -88 -6 l-60 0 72 7 c40 3 75 9 78 12 3 3 -24 45 -61 94 -165 219 -199 434 -93 589 126 186 410 321 758 360 l64 7 -64 56 c-478 417 -555 889 -237 1455 28 49 48 90 46 93 -3 2 -54 13 -115 24 -284 51 -456 140 -632 326 -114 121 -189 257 -216 397 l-6 28 -72 -67 c-273 -253 -554 -338 -857 -260 -92 24 -273 113 -355 176 -38 29 -114 96 -167 148 l-98 96 -11 -32 c-20 -57 -88 -192 -126 -250 -55 -83 -246 -276 -327 -329 -39 -25 -97 -58 -131 -73 -61 -28 -215 -70 -256 -70 -19 0 -9 -14 58 -82 131 -136 209 -269 238 -404 19 -87 18 -133 0 -213 -28 -115 -77 -192 -217 -335 -69 -72 -126 -131 -125 -131 1 -1 34 -24 73 -53 220 -160 298 -330 249 -539 -34 -143 -147 -329 -295 -487 -49 -52 -90 -97 -90 -100 0 -2 37 -9 83 -16 90 -13 199 -54 274 -103 112 -74 262 -239 331 -365 l27 -49 115 85 c106 77 190 130 190 117 0 -2 -15 -12 -32 -21 -18 -9 -88 -57 -156 -106 -68 -50 -124 -89 -126 -87 -1 2 -19 34 -40 72 -82 148 -216 284 -356 360 -80 43 -149 64 -258 76 -46 5 -86 11 -89 15 -3 3 24 37 60 76 389 420 439 786 139 1009 -38 28 -97 63 -132 79 l-64 28 77 58 c244 183 355 418 303 641 -35 148 -150 325 -296 457 -38 34 -67 64 -65 68 2 4 35 7 72 7 80 0 239 40 330 82 231 108 425 341 514 619 12 39 26 72 29 72 3 0 30 -25 60 -56z m1394 -583 c47 -48 43 -5 45 -547 l1 -402 120 -3 119 -4 44 -43 c41 -40 46 -51 60 -125 9 -45 21 -126 28 -180 l12 -99 -44 -44 -44 -45 -152 6 -152 6 -7 -37 c-7 -37 1 -191 12 -230 8 -29 84 -44 219 -44 92 0 103 -2 123 -23 20 -21 21 -29 16 -197 -6 -164 -7 -176 -28 -198 -29 -30 -86 -34 -300 -22 -151 9 -163 11 -231 43 -77 37 -167 117 -198 177 -17 34 -17 34 0 10 66 -92 159 -157 267 -186 53 -15 348 -20 414 -8 l32 6 0 173 0 174 -149 3 c-133 3 -153 5 -178 24 -51 38 -58 65 -61 242 l-4 162 191 0 c105 0 191 3 191 8 0 13 -41 327 -46 350 -4 22 -6 22 -169 22 l-165 0 0 495 0 495 -200 0 -200 0 0 -495 0 -495 -165 0 -165 0 0 -190 0 -190 165 0 165 0 -2 -122 -2 -123 -3 119 -4 118 -167 -3 -167 -4 -7 45 c-3 25 -7 116 -7 202 -1 198 -10 188 175 188 l132 0 -4 148 c-2 81 -6 296 -8 478 l-5 331 32 31 c18 16 41 32 52 34 11 2 101 5 200 7 l180 2 39 -40z m-956 -2758 c-15 -2 -42 -2 -60 0 -18 2 -6 4 27 4 33 0 48 -2 33 -4z m-99 -7 c-2 -2 -26 -6 -54 -9 -34 -4 -42 -3 -25 3 25 8 87 13 79 6z m174 -3 c-7 -2 -21 -2 -30 0 -10 3 -4 5 12 5 17 0 24 -2 18 -5z m102 -32 c119 -56 217 -157 286 -293 44 -87 34 -84 -14 4 -84 155 -171 239 -303 293 -32 14 -52 25 -44 25 8 0 42 -13 75 -29z m-415 4 c-46 -18 -64 -17 -25 0 17 8 37 14 45 14 8 0 -1 -7 -20 -14z m-80 -30 c-14 -8 -29 -14 -35 -14 -5 0 1 6 15 14 14 8 30 14 35 14 6 0 -1 -6 -15 -14z m-55 -25 c-3 -5 -11 -10 -16 -10 -6 0 -7 5 -4 10 3 6 11 10 16 10 6 0 7 -4 4 -10z m1843 -137 c-10 -2 -26 -2 -35 0 -10 3 -2 5 17 5 19 0 27 -2 18 -5z m-103 -14 c-22 -4 -51 -8 -65 -7 -35 1 34 15 75 16 25 0 23 -2 -10 -9z m-102 -16 c-7 -2 -19 -2 -25 0 -7 3 -2 5 12 5 14 0 19 -2 13 -5z m-50 -10 c-7 -2 -19 -2 -25 0 -7 3 -2 5 12 5 14 0 19 -2 13 -5z m-108 -24 c-38 -10 -74 -17 -80 -15 -12 3 103 34 130 34 11 0 -11 -8 -50 -19z m-98 -26 c-4 -3 -10 -3 -14 0 -3 4 0 7 7 7 7 0 10 -3 7 -7z m-30 -10 c-4 -3 -10 -3 -14 0 -3 4 0 7 7 7 7 0 10 -3 7 -7z m-53 -17 c-50 -22 -82 -27 -39 -7 22 11 47 20 55 20 8 0 1 -6 -16 -13z m-85 -30 c-10 -9 -109 -56 -109 -51 0 6 91 54 104 55 5 0 7 -2 5 -4z m-329 -71 c0 -5 -5 -3 -10 5 -5 8 -10 20 -10 25 0 6 5 3 10 -5 5 -8 10 -19 10 -25z m205 7 c-35 -29 -163 -122 -169 -122 -3 0 -6 5 -6 12 0 6 3 9 6 5 3 -3 42 21 86 54 44 32 82 59 86 59 3 0 2 -4 -3 -8z m-181 -72 c5 -17 4 -20 -2 -10 -5 8 -13 26 -16 40 -5 17 -4 20 2 10 5 -8 13 -26 16 -40z"/>
</g>
<g id="layer103" fill="#a1a1a1" stroke="none">
<path d="M1057 4083 c-2 -5 -19 -53 -37 -108 -118 -361 -356 -594 -679 -666 -47 -10 -109 -19 -138 -19 -29 0 -76 -5 -105 -11 l-53 -12 30 -21 c56 -39 206 -191 255 -256 201 -273 192 -527 -27 -760 -42 -45 -116 -111 -165 -148 l-89 -66 70 -27 c248 -95 380 -284 350 -499 -12 -83 -23 -118 -67 -205 -62 -125 -128 -214 -289 -391 -46 -51 -83 -94 -83 -96 0 -3 53 -7 118 -10 188 -9 318 -63 454 -187 80 -74 153 -171 203 -269 20 -39 39 -72 41 -72 3 0 63 43 134 95 227 167 357 224 528 233 267 13 426 -115 552 -443 24 -60 46 -114 50 -118 4 -5 53 25 109 67 56 41 134 91 174 109 196 93 502 160 791 175 l129 7 -86 115 c-48 63 -100 142 -116 176 -145 298 -20 534 351 658 104 35 181 52 344 76 143 21 204 36 204 49 0 5 -19 21 -42 36 -65 43 -198 159 -245 213 -161 188 -240 373 -250 588 -12 246 60 475 242 775 30 50 55 94 55 100 0 5 -23 9 -51 9 -76 0 -248 28 -347 55 -48 14 -137 50 -197 80 -234 116 -371 300 -410 550 -19 119 -33 177 -43 173 -4 -2 -37 -34 -72 -73 -240 -261 -522 -388 -790 -355 -236 28 -436 137 -666 362 -66 65 -123 118 -127 118 -3 0 -8 -3 -10 -7z m83 -109 c388 -395 803 -503 1180 -309 110 57 238 155 324 245 37 40 69 70 71 68 2 -2 7 -35 10 -73 13 -144 79 -304 173 -420 91 -113 247 -211 427 -270 89 -29 283 -65 351 -65 24 0 44 -2 44 -3 0 -2 -26 -46 -57 -98 -285 -472 -302 -882 -51 -1252 56 -82 167 -198 261 -270 42 -33 76 -62 74 -64 -2 -2 -58 -10 -125 -18 -214 -27 -362 -65 -498 -130 -84 -40 -178 -109 -217 -159 -71 -91 -105 -210 -87 -307 24 -129 60 -206 154 -334 75 -102 75 -102 -29 -104 -84 -2 -323 -40 -454 -72 -223 -55 -347 -109 -480 -210 -45 -34 -83 -60 -85 -58 -2 2 -18 42 -36 89 -103 272 -235 408 -437 456 -185 44 -425 -35 -681 -225 -62 -46 -114 -82 -116 -80 -1 2 -19 34 -40 72 -82 148 -216 284 -356 360 -80 43 -149 64 -258 76 -46 5 -86 11 -89 15 -3 3 24 37 60 76 389 420 439 786 139 1009 -38 28 -97 63 -132 79 l-64 28 77 58 c244 183 355 418 303 641 -35 148 -150 325 -296 457 -38 34 -67 64 -65 68 2 4 35 7 72 7 80 0 239 40 330 82 231 108 425 341 514 619 12 39 26 72 29 72 3 0 30 -25 60 -56z"/>
</g>
<g id="layer104" fill="#f2d191" stroke="none">
<path d="M2100 2855 l0 -495 -165 0 -165 0 0 -190 0 -190 164 0 164 0 4 -207 c4 -183 7 -216 27 -273 54 -156 158 -254 316 -297 52 -14 348 -19 413 -7 l32 6 0 173 0 174 -149 3 c-133 3 -153 5 -178 24 -51 38 -58 65 -61 242 l-4 162 191 0 c105 0 191 3 191 8 0 13 -41 327 -46 350 -4 22 -6 22 -169 22 l-165 0 0 495 0 495 -200 0 -200 0 0 -495z"/>
</g>
<g id="layer105" fill="#f8f8f8" stroke="none">
<path d="M1035 4002 c-128 -401 -377 -639 -738 -707 -47 -9 -96 -13 -110 -10 -14 4 -52 1 -84 -5 l-58 -13 29 -21 c147 -107 275 -254 341 -391 91 -189 87 -339 -15 -510 -47 -79 -167 -199 -269 -270 l-84 -59 64 -23 c86 -32 119 -50 190 -103 154 -117 210 -283 158 -470 -41 -151 -154 -326 -330 -514 -105 -113 -105 -113 21 -114 268 -2 518 -177 662 -464 l33 -66 135 99 c269 197 479 268 671 225 185 -41 314 -178 415 -442 32 -84 51 -121 58 -116 97 74 179 133 211 151 169 98 504 181 815 201 80 5 146 10 148 10 5 0 -61 94 -109 153 -61 76 -105 165 -131 268 -18 74 -19 91 -9 149 43 241 316 402 770 455 127 15 191 30 191 45 0 4 -12 16 -27 25 -193 123 -351 300 -438 489 -97 208 -105 466 -24 707 29 87 136 307 197 404 l50 80 -56 7 c-32 4 -94 12 -140 18 -181 23 -384 96 -508 181 -166 114 -283 312 -305 514 -10 95 -26 158 -38 153 -4 -2 -43 -42 -87 -90 -223 -246 -469 -361 -738 -345 -130 8 -196 26 -332 92 -135 65 -234 138 -385 283 l-116 111 -28 -87z m130 -43 c193 -195 392 -316 603 -365 97 -23 266 -20 367 5 163 42 340 150 499 304 44 42 80 76 81 75 1 -2 8 -39 14 -83 18 -118 37 -180 89 -280 36 -71 64 -108 132 -175 156 -155 342 -235 645 -277 66 -9 122 -18 124 -19 2 -2 -21 -45 -52 -96 -98 -166 -154 -296 -198 -458 -20 -73 -23 -108 -23 -245 1 -145 3 -168 28 -250 67 -222 207 -417 414 -579 34 -27 61 -51 59 -52 -2 -2 -66 -13 -143 -24 -452 -66 -703 -206 -768 -429 -42 -145 7 -312 149 -506 l66 -90 -93 -6 c-199 -14 -473 -67 -642 -126 -128 -44 -210 -87 -310 -163 -44 -33 -80 -59 -82 -57 -1 1 -20 49 -43 107 -54 140 -103 221 -181 301 -111 113 -220 154 -389 146 -171 -8 -317 -70 -530 -226 l-125 -90 -31 57 c-101 188 -273 352 -432 412 -70 26 -188 50 -249 50 -24 0 -44 2 -44 5 0 3 45 57 100 121 224 261 307 434 298 629 -3 71 -10 102 -31 149 -51 110 -135 191 -278 266 l-70 37 68 56 c220 179 312 335 313 524 0 192 -77 343 -280 549 -50 50 -87 94 -83 97 3 4 30 7 59 7 114 0 283 49 404 117 96 55 243 192 303 284 55 85 112 204 142 297 15 45 30 82 33 82 4 0 43 -36 87 -81z"/>
</g>


</svg>