<!DOCTYPE svg PUBLIC "-//W3C//DTD SVG 20010904//EN" "http://www.w3.org/TR/2001/REC-SVG-20010904/DTD/svg10.dtd">
<svg version="1.0" xmlns="http://www.w3.org/2000/svg" width="404px" height="415px" viewBox="0 0 4040 4150" preserveAspectRatio="xMidYMid meet">
<g id="layer101" fill="#030304" stroke="none">
<path d="M1027 4112 c-28 -29 -45 -62 -71 -137 -125 -372 -288 -529 -626 -605 -47 -11 -118 -20 -158 -20 -73 0 -73 0 -120 -45 l-47 -45 56 -52 c31 -29 83 -78 116 -108 95 -88 189 -243 224 -370 17 -64 15 -186 -6 -255 -19 -67 -78 -172 -127 -226 -18 -20 -69 -63 -113 -97 -44 -33 -96 -76 -114 -96 l-35 -36 34 -35 c18 -19 50 -40 69 -46 49 -16 106 -44 173 -87 138 -89 185 -290 114 -492 -38 -109 -124 -245 -239 -382 -116 -137 -152 -186 -144 -194 3 -3 48 -9 100 -14 261 -25 357 -63 501 -199 68 -66 103 -112 171 -234 28 -49 55 -89 60 -88 6 0 71 46 146 101 149 109 248 164 361 201 61 20 93 24 193 24 105 0 127 -3 172 -24 154 -69 249 -187 337 -420 57 -148 41 -142 158 -55 56 41 133 91 171 111 194 97 564 176 876 186 l73 2 -92 125 c-103 140 -119 167 -149 260 -45 136 -23 276 60 373 98 115 371 218 639 242 152 14 196 25 226 56 l29 30 -36 32 c-19 18 -63 51 -96 75 -77 55 -173 151 -226 229 -57 81 -122 222 -148 318 -29 110 -32 315 -5 430 41 177 123 363 232 525 30 45 54 85 54 89 0 4 -17 23 -37 43 -36 33 -43 36 -123 42 -219 17 -433 87 -590 191 -71 47 -98 78 -144 160 -54 98 -78 170 -96 294 l-19 125 -46 45 -46 46 -92 -97 c-231 -243 -472 -352 -740 -335 -245 16 -477 138 -712 376 -55 56 -102 101 -105 101 -3 0 -23 -17 -43 -38z"/>
</g>
<g id="layer102" fill="#ab1e1e" stroke="none">
<path d="M1024 3988 c-142 -426 -420 -662 -823 -697 -58 -6 -117 -14 -130 -19 -24 -9 -24 -9 20 -39 66 -46 213 -202 268 -287 75 -116 103 -193 109 -307 4 -80 1 -109 -17 -167 -40 -132 -170 -289 -339 -410 l-65 -46 63 -23 c86 -32 218 -120 262 -174 68 -82 91 -143 96 -246 4 -79 1 -105 -21 -175 -46 -147 -136 -283 -321 -490 -53 -58 -96 -108 -96 -111 0 -2 51 -7 113 -10 61 -4 139 -14 171 -22 198 -54 382 -219 495 -442 17 -35 35 -63 39 -63 4 1 68 46 142 100 221 164 382 230 556 230 240 0 396 -138 519 -461 20 -52 40 -98 45 -103 6 -6 46 19 102 62 158 121 349 196 623 247 127 23 302 43 419 48 l58 2 -89 121 c-93 126 -132 200 -158 299 -61 235 81 422 400 529 96 33 173 49 348 76 138 21 197 36 197 49 0 5 -24 24 -52 43 -80 54 -235 204 -300 292 -190 256 -237 570 -132 885 33 99 116 271 192 396 l61 100 -32 3 c-308 24 -528 90 -692 206 -158 113 -264 295 -294 506 -14 95 -29 153 -40 148 -4 -2 -36 -34 -71 -73 -79 -86 -206 -190 -300 -245 -139 -81 -257 -112 -425 -111 -126 0 -226 26 -361 91 -131 63 -242 146 -385 287 l-117 115 -38 -114z m166 -61 c174 -167 351 -276 535 -329 114 -33 315 -33 429 0 162 47 323 146 465 288 52 52 95 93 97 92 1 -2 7 -47 13 -101 30 -262 189 -478 446 -602 135 -66 365 -125 487 -125 20 0 40 -4 43 -10 3 -5 -14 -43 -38 -83 -64 -105 -119 -218 -160 -327 -101 -272 -95 -548 16 -781 77 -159 206 -314 355 -426 40 -31 71 -57 69 -59 -2 -3 -64 -11 -137 -20 -552 -64 -853 -302 -786 -623 20 -95 79 -215 156 -315 33 -44 60 -81 60 -83 0 -2 -12 -2 -27 -2 -17 1 -21 3 -10 6 9 2 17 6 17 8 0 2 -30 43 -67 92 -164 218 -198 433 -92 588 126 186 410 321 758 360 l64 7 -64 56 c-478 417 -555 889 -237 1455 28 49 48 90 46 93 -3 2 -54 13 -115 24 -284 51 -456 140 -632 326 -114 121 -189 257 -216 397 l-6 28 -72 -67 c-273 -253 -554 -338 -857 -260 -92 24 -273 113 -355 176 -38 29 -114 96 -167 148 l-98 96 -11 -32 c-20 -57 -88 -192 -126 -250 -55 -83 -246 -276 -327 -329 -39 -25 -97 -58 -131 -73 -61 -28 -215 -70 -256 -70 -19 0 -9 -14 58 -82 131 -136 209 -269 238 -404 19 -87 18 -133 0 -213 -28 -115 -77 -192 -217 -335 -69 -72 -126 -131 -125 -131 1 -1 34 -24 73 -53 220 -160 298 -330 249 -539 -34 -143 -147 -329 -295 -487 -49 -52 -90 -97 -90 -100 0 -2 37 -9 83 -16 90 -13 199 -54 274 -103 112 -74 262 -239 331 -365 l27 -49 115 85 c110 80 170 118 170 108 0 -3 -12 -12 -27 -20 -16 -8 -81 -53 -146 -101 -65 -48 -120 -85 -121 -83 -2 2 -17 30 -35 64 -46 88 -149 214 -228 279 -119 99 -230 143 -432 172 l-53 8 67 75 c152 168 255 328 302 465 23 66 28 97 28 180 0 92 -3 105 -32 168 -18 38 -47 86 -63 107 -43 54 -142 127 -224 165 l-70 32 75 55 c131 97 244 236 290 357 30 78 36 207 15 291 -37 146 -142 309 -281 437 -40 37 -74 73 -74 78 -1 6 30 11 71 12 40 1 117 13 170 26 314 82 557 327 669 676 13 39 25 71 27 71 2 0 53 -46 112 -103z m1344 -536 c47 -48 43 -5 45 -547 l1 -402 120 -3 119 -4 44 -43 c41 -40 46 -51 60 -125 9 -45 21 -126 28 -180 l12 -99 -44 -44 -44 -45 -152 6 -152 6 -7 -37 c-7 -37 1 -191 12 -230 8 -29 84 -44 219 -44 92 0 103 -2 123 -23 20 -21 21 -29 16 -197 -6 -164 -7 -176 -28 -198 -29 -30 -86 -34 -300 -22 -151 9 -163 11 -231 43 -77 37 -167 117 -198 177 -17 34 -17 34 0 10 66 -92 159 -157 267 -186 53 -15 348 -20 414 -8 l32 6 0 173 0 174 -149 3 c-133 3 -153 5 -178 24 -51 38 -58 65 -61 242 l-4 162 191 0 c105 0 191 3 191 8 0 13 -41 327 -46 350 -4 22 -6 22 -169 22 l-165 0 0 495 0 495 -200 0 -200 0 0 -495 0 -495 -165 0 -165 0 0 -190 0 -190 165 0 165 0 -2 -122 -2 -123 -3 119 -4 118 -167 -3 -167 -4 -7 45 c-3 25 -7 116 -7 202 -1 198 -10 188 175 188 l132 0 -4 148 c-2 81 -6 296 -8 478 l-5 331 32 31 c18 16 41 32 52 34 11 2 101 5 200 7 l180 2 39 -40z m-374 -1966 c0 -3 -2 -5 -5 -5 -3 0 -5 2 -5 5 0 3 2 5 5 5 3 0 5 -2 5 -5z m-582 -792 c-15 -2 -42 -2 -60 0 -18 2 -6 4 27 4 33 0 48 -2 33 -4z m-115 -10 c-7 -2 -21 -2 -30 0 -10 3 -4 5 12 5 17 0 24 -2 18 -5z m190 0 c-7 -2 -21 -2 -30 0 -10 3 -4 5 12 5 17 0 24 -2 18 -5z m-246 -9 c-3 -3 -12 -4 -19 -1 -8 3 -5 6 6 6 11 1 17 -2 13 -5z m351 -24 c34 -16 62 -32 62 -35 0 -3 -19 4 -42 16 -23 12 -58 27 -77 34 -20 8 -29 14 -21 14 8 1 43 -12 78 -29z m-418 5 c-46 -18 -64 -17 -25 0 17 8 37 14 45 14 8 0 -1 -7 -20 -14z m-70 -25 c-8 -5 -19 -10 -25 -10 -5 0 -3 5 5 10 8 5 20 10 25 10 6 0 3 -5 -5 -10z m-40 -15 c0 -3 -2 -5 -5 -5 -3 0 -5 2 -5 5 0 3 2 5 5 5 3 0 5 -2 5 -5z m-20 -9 c0 -2 -7 -7 -16 -10 -8 -3 -12 -2 -9 4 6 10 25 14 25 6z m641 -13 c13 -16 12 -17 -3 -4 -17 13 -22 21 -14 21 2 0 10 -8 17 -17z m-681 -8 c0 -3 -2 -5 -5 -5 -3 0 -5 2 -5 5 0 3 2 5 5 5 3 0 5 -2 5 -5z m805 -120 c41 -58 95 -156 95 -172 0 -4 -18 25 -39 64 -42 79 -75 126 -130 188 l-36 40 34 -30 c18 -17 52 -57 76 -90z m1183 8 c-15 -2 -42 -2 -60 0 -18 2 -6 4 27 4 33 0 48 -2 33 -4z m-110 -10 c-10 -2 -26 -2 -35 0 -10 3 -2 5 17 5 19 0 27 -2 18 -5z m-80 -10 c-10 -2 -26 -2 -35 0 -10 3 -2 5 17 5 19 0 27 -2 18 -5z m-65 -10 c-7 -2 -21 -2 -30 0 -10 3 -4 5 12 5 17 0 24 -2 18 -5z m-60 -10 c-7 -2 -19 -2 -25 0 -7 3 -2 5 12 5 14 0 19 -2 13 -5z m-50 -10 c-7 -2 -19 -2 -25 0 -7 3 -2 5 12 5 14 0 19 -2 13 -5z m-63 -13 c-14 -4 -34 -8 -45 -8 -16 0 -15 2 5 8 14 4 34 8 45 8 16 0 15 -2 -5 -8z m-85 -20 c-11 -5 -27 -9 -35 -9 -9 0 -8 4 5 9 11 5 27 9 35 9 9 0 8 -4 -5 -9z m-58 -17 c-4 -3 -10 -3 -14 0 -3 4 0 7 7 7 7 0 10 -3 7 -7z m-30 -10 c-4 -3 -10 -3 -14 0 -3 4 0 7 7 7 7 0 10 -3 7 -7z m-42 -13 c-27 -12 -43 -12 -25 0 8 5 22 9 30 9 10 0 8 -3 -5 -9z m-55 -20 c-8 -5 -19 -10 -25 -10 -5 0 -3 5 5 10 8 5 20 10 25 10 6 0 3 -5 -5 -10z m-41 -14 c-10 -9 -109 -56 -109 -51 0 6 91 54 104 55 5 0 7 -2 5 -4z m-329 -71 c0 -5 -5 -3 -10 5 -5 8 -10 20 -10 25 0 6 5 3 10 -5 5 -8 10 -19 10 -25z m209 11 c-13 -12 -170 -126 -174 -126 -3 0 -5 5 -5 12 0 6 3 9 6 5 3 -3 42 21 86 54 44 32 82 59 86 59 3 0 3 -2 1 -4z m-185 -76 c5 -17 4 -20 -2 -10 -5 8 -13 26 -16 40 -5 17 -4 20 2 10 5 -8 13 -26 16 -40z"/>
</g>
<g id="layer103" fill="#616161" stroke="none">
<path d="M1024 3988 c-142 -426 -420 -662 -823 -697 -58 -6 -117 -14 -130 -19 -24 -9 -24 -9 20 -39 66 -46 213 -202 268 -287 75 -116 103 -193 109 -307 4 -80 1 -109 -17 -167 -40 -132 -170 -289 -339 -410 l-65 -46 63 -23 c86 -32 218 -120 262 -174 68 -82 91 -143 96 -246 4 -79 1 -105 -21 -175 -46 -147 -136 -283 -321 -490 -53 -58 -96 -108 -96 -111 0 -2 51 -7 113 -10 61 -4 139 -14 171 -22 198 -54 382 -219 495 -442 17 -35 35 -63 39 -63 4 1 68 46 142 100 221 164 382 230 556 230 240 0 396 -138 519 -461 20 -52 40 -98 45 -103 6 -6 46 19 102 62 158 121 349 196 623 247 127 23 302 43 419 48 l58 2 -89 121 c-93 126 -132 200 -158 299 -61 235 81 422 400 529 96 33 173 49 348 76 138 21 197 36 197 49 0 5 -24 24 -52 43 -80 54 -235 204 -300 292 -190 256 -237 570 -132 885 33 99 116 271 192 396 l61 100 -32 3 c-308 24 -528 90 -692 206 -158 113 -264 295 -294 506 -14 95 -29 153 -40 148 -4 -2 -36 -34 -71 -73 -79 -86 -206 -190 -300 -245 -139 -81 -257 -112 -425 -111 -126 0 -226 26 -361 91 -131 63 -242 146 -385 287 l-117 115 -38 -114z m166 -61 c174 -167 351 -276 535 -329 114 -33 315 -33 429 0 162 47 323 146 465 288 52 52 95 93 97 92 1 -2 7 -47 13 -101 30 -262 189 -478 446 -602 135 -66 365 -125 487 -125 20 0 40 -4 43 -10 3 -5 -14 -43 -38 -83 -64 -105 -119 -218 -160 -327 -101 -272 -95 -548 16 -781 77 -159 206 -314 355 -426 40 -31 71 -57 69 -59 -2 -3 -64 -11 -137 -20 -552 -64 -853 -302 -786 -623 20 -95 79 -215 155 -315 34 -44 60 -81 58 -82 -2 -2 -25 -6 -53 -8 -202 -21 -274 -31 -384 -52 -259 -51 -440 -123 -588 -233 -46 -34 -85 -61 -87 -59 -1 2 -17 41 -35 88 -105 276 -231 408 -437 456 -155 37 -362 -14 -553 -135 -30 -19 -97 -66 -148 -104 -51 -38 -95 -67 -96 -65 -2 1 -17 30 -35 64 -46 88 -149 214 -228 279 -119 99 -230 143 -432 172 l-53 8 67 75 c152 168 255 328 302 465 23 66 28 97 28 180 0 92 -3 105 -32 168 -18 38 -47 86 -63 107 -43 54 -142 127 -224 165 l-70 32 75 55 c131 97 244 236 290 357 30 78 36 207 15 291 -37 146 -142 309 -281 437 -40 37 -74 73 -74 78 -1 6 30 11 71 12 40 1 117 13 170 26 314 82 557 327 669 676 13 39 25 71 27 71 2 0 53 -46 112 -103z"/>
</g>
<g id="layer104" fill="#cba151" stroke="none">
<path d="M2100 2855 l0 -495 -165 0 -165 0 0 -190 0 -190 164 0 164 0 4 -207 c4 -183 7 -216 27 -273 54 -156 158 -254 316 -297 52 -14 348 -19 413 -7 l32 6 0 173 0 174 -149 3 c-133 3 -153 5 -178 24 -51 38 -58 65 -61 242 l-4 162 191 0 c105 0 191 3 191 8 0 13 -41 327 -46 350 -4 22 -6 22 -169 22 l-165 0 0 495 0 495 -200 0 -200 0 0 -495z"/>
</g>
<g id="layer105" fill="#a1a1a1" stroke="none">
<path d="M1030 3993 c-103 -311 -296 -541 -538 -639 -93 -37 -169 -54 -287 -64 -60 -5 -121 -13 -134 -18 -24 -9 -24 -9 20 -39 71 -49 231 -222 283 -305 73 -119 100 -203 100 -318 -1 -79 -5 -107 -27 -164 -50 -127 -159 -255 -315 -369 l-83 -60 78 -31 c235 -94 370 -277 348 -470 -20 -182 -122 -361 -347 -609 l-102 -112 124 -6 c197 -10 316 -60 458 -194 83 -78 148 -164 202 -267 l36 -68 140 101 c323 236 570 292 784 178 72 -38 160 -129 212 -218 20 -35 57 -116 83 -182 31 -80 50 -117 58 -112 7 4 46 33 88 64 136 103 247 154 454 209 158 42 339 70 498 77 75 3 137 9 137 14 0 4 -38 58 -84 121 -96 130 -116 166 -146 266 -18 58 -21 90 -18 150 6 102 35 160 118 242 125 125 335 203 656 244 121 16 184 31 184 46 0 4 -24 23 -52 42 -169 114 -309 271 -393 443 -79 162 -90 209 -90 405 0 149 3 175 27 261 36 130 104 281 193 429 52 88 71 127 62 132 -7 4 -34 8 -62 8 -66 0 -222 26 -315 52 -360 100 -579 332 -620 656 -12 94 -28 155 -39 150 -4 -2 -36 -34 -71 -73 -163 -176 -334 -290 -509 -337 -107 -29 -295 -29 -403 0 -186 50 -346 151 -534 334 -72 70 -134 128 -137 128 -3 0 -20 -44 -37 -97z m157 -60 c275 -257 489 -357 758 -356 247 1 449 94 672 309 53 51 98 93 99 91 1 -1 7 -42 13 -92 43 -326 253 -560 601 -669 92 -29 288 -66 351 -66 21 0 39 -2 39 -5 0 -2 -19 -35 -41 -72 -109 -178 -195 -382 -223 -533 -18 -95 -21 -269 -5 -356 43 -244 187 -470 417 -652 45 -36 80 -67 78 -69 -2 -2 -55 -10 -117 -18 -155 -20 -257 -42 -363 -76 -464 -152 -575 -476 -292 -851 36 -48 66 -91 66 -96 0 -5 -48 -12 -107 -15 -190 -11 -444 -61 -618 -120 -110 -38 -212 -91 -300 -157 -44 -33 -83 -60 -86 -60 -3 0 -25 50 -49 111 -51 131 -101 212 -178 292 -154 157 -356 193 -596 106 -107 -39 -191 -86 -320 -181 -59 -44 -113 -81 -120 -84 -6 -2 -22 17 -35 42 -70 130 -197 273 -315 352 -93 61 -213 102 -327 109 -49 3 -89 8 -89 10 0 3 30 37 66 76 244 266 365 521 336 709 -25 162 -131 290 -320 383 l-63 32 90 71 c225 178 330 399 288 606 -32 155 -117 295 -273 451 -51 51 -90 96 -87 99 4 3 35 6 69 6 74 0 208 29 294 64 244 99 452 339 546 628 15 48 30 85 33 82 4 -3 52 -49 108 -101z"/>
</g>
<g id="layer106" fill="#f8f8f8" stroke="none">
<path d="M1035 4002 c-128 -401 -377 -639 -738 -707 -47 -9 -96 -13 -110 -10 -14 4 -52 1 -84 -5 l-58 -13 29 -21 c147 -107 275 -254 341 -391 91 -189 87 -339 -15 -510 -47 -79 -167 -199 -269 -270 l-84 -59 64 -23 c86 -32 119 -50 190 -103 154 -117 210 -283 158 -470 -41 -151 -154 -326 -330 -514 -105 -113 -105 -113 21 -114 268 -2 518 -177 662 -464 l33 -66 135 99 c269 197 479 268 671 225 185 -41 314 -178 415 -442 32 -84 51 -121 58 -116 97 74 179 133 211 151 169 98 504 181 815 201 80 5 146 10 148 10 5 0 -61 94 -109 153 -61 76 -105 165 -131 268 -18 74 -19 91 -9 149 43 241 316 402 770 455 127 15 191 30 191 45 0 4 -12 16 -27 25 -193 123 -351 300 -438 489 -97 208 -105 466 -24 707 29 87 136 307 197 404 l50 80 -56 7 c-32 4 -94 12 -140 18 -181 23 -384 96 -508 181 -166 114 -283 312 -305 514 -10 95 -26 158 -38 153 -4 -2 -43 -42 -87 -90 -223 -246 -469 -361 -738 -345 -130 8 -196 26 -332 92 -135 65 -234 138 -385 283 l-116 111 -28 -87z m130 -43 c193 -195 392 -316 603 -365 97 -23 266 -20 367 5 163 42 340 150 499 304 44 42 80 76 81 75 1 -2 8 -39 14 -83 18 -118 37 -180 89 -280 36 -71 64 -108 132 -175 156 -155 342 -235 645 -277 66 -9 122 -18 124 -19 2 -2 -21 -45 -52 -96 -98 -166 -154 -296 -198 -458 -20 -73 -23 -108 -23 -245 1 -145 3 -168 28 -250 67 -222 207 -417 414 -579 34 -27 61 -51 59 -52 -2 -2 -66 -13 -143 -24 -452 -66 -703 -206 -768 -429 -42 -145 7 -312 149 -506 l66 -90 -93 -6 c-199 -14 -473 -67 -642 -126 -128 -44 -210 -87 -310 -163 -44 -33 -80 -59 -82 -57 -1 1 -20 49 -43 107 -54 140 -103 221 -181 301 -111 113 -220 154 -389 146 -171 -8 -317 -70 -530 -226 l-125 -90 -31 57 c-101 188 -273 352 -432 412 -70 26 -188 50 -249 50 -24 0 -44 2 -44 5 0 3 45 57 100 121 224 261 307 434 298 629 -3 71 -10 102 -31 149 -51 110 -135 191 -278 266 l-70 37 68 56 c220 179 312 335 313 524 0 192 -77 343 -280 549 -50 50 -87 94 -83 97 3 4 30 7 59 7 114 0 283 49 404 117 96 55 243 192 303 284 55 85 112 204 142 297 15 45 30 82 33 82 4 0 43 -36 87 -81z"/>
</g>


</svg>