<!DOCTYPE svg PUBLIC "-//W3C//DTD SVG 20010904//EN" "http://www.w3.org/TR/2001/REC-SVG-20010904/DTD/svg10.dtd">
<svg version="1.0" xmlns="http://www.w3.org/2000/svg" width="404px" height="415px" viewBox="0 0 4040 4150" preserveAspectRatio="xMidYMid meet">
<g id="layer101" fill="#030405" stroke="none">
 <path d="M1023 4108 c-32 -34 -47 -63 -73 -142 -57 -173 -159 -347 -244 -417 -141 -117 -368 -199 -547 -199 -70 0 -71 0 -117 -45 l-47 -46 64 -57 c183 -162 264 -265 316 -403 36 -98 45 -229 21 -313 -37 -126 -111 -229 -231 -319 -44 -34 -99 -79 -123 -101 l-43 -39 43 -44 c23 -24 47 -43 53 -43 18 0 167 -76 205 -104 83 -63 137 -199 127 -320 -15 -175 -106 -344 -321 -594 -58 -68 -106 -127 -106 -133 0 -5 9 -9 19 -9 11 0 23 -4 26 -10 3 -5 39 -10 78 -10 166 0 296 -41 415 -129 111 -82 175 -162 257 -318 20 -40 41 -73 46 -73 4 0 72 47 151 105 238 175 407 243 578 232 101 -6 156 -24 230 -76 103 -71 179 -186 260 -393 23 -60 45 -108 50 -108 5 0 55 35 112 78 57 42 144 96 194 119 192 89 503 156 787 170 70 3 127 9 127 12 0 3 -39 58 -86 121 -47 63 -98 140 -114 171 -92 179 -75 364 44 481 116 114 360 196 680 228 119 12 129 15 165 54 24 26 24 26 5 47 -10 12 -52 46 -93 76 -206 153 -349 369 -398 598 -23 107 -20 292 5 395 43 177 120 349 232 519 l61 94 -35 36 c-35 36 -38 37 -149 48 -166 17 -331 63 -466 130 -144 71 -208 132 -268 253 -55 113 -70 162 -84 272 -14 114 -17 124 -69 173 l-41 40 -107 -112 c-59 -61 -132 -129 -162 -151 -296 -209 -595 -235 -910 -77 -113 57 -226 141 -358 270 -60 58 -111 105 -114 105 -2 0 -22 -19 -45 -42z"/>
 </g>
<g id="layer102" fill="#173d73" stroke="none">
 <path d="M1030 4003 c-83 -250 -193 -417 -353 -537 -145 -109 -293 -162 -487 -175 -58 -4 -113 -12 -123 -17 -17 -10 -15 -13 20 -39 119 -90 249 -238 311 -356 69 -128 88 -230 67 -351 -27 -158 -129 -294 -334 -448 -81 -61 -83 -64 -60 -73 113 -43 213 -102 272 -160 86 -85 119 -155 125 -266 6 -109 -9 -174 -68 -296 -55 -113 -136 -225 -275 -378 -52 -58 -95 -107 -95 -110 0 -2 51 -7 113 -10 61 -4 139 -14 171 -22 199 -55 381 -218 497 -445 17 -33 33 -60 37 -60 4 1 68 46 142 101 216 161 381 229 556 229 107 0 194 -27 271 -83 104 -78 167 -170 239 -352 26 -66 51 -124 55 -129 5 -5 48 21 101 62 104 78 191 125 319 170 167 59 435 108 659 120 l122 7 -89 121 c-125 170 -172 281 -173 405 -1 251 278 436 744 494 100 13 226 41 226 50 0 1 -42 34 -92 73 -289 220 -437 469 -455 764 -15 242 61 482 251 793 l54 90 -91 7 c-242 19 -467 89 -617 191 -167 115 -276 293 -305 502 -8 55 -19 117 -25 137 l-10 36 -118 -117 c-193 -193 -357 -286 -562 -317 -76 -11 -119 -12 -184 -5 -241 28 -445 140 -687 378 l-117 115 -32 -99z m149 -66 c212 -203 395 -309 611 -353 106 -21 263 -15 368 16 152 43 315 144 460 284 51 49 94 87 95 85 2 -2 9 -44 15 -94 17 -132 79 -279 161 -383 127 -160 367 -282 646 -327 49 -8 107 -15 127 -15 20 0 40 -4 43 -10 3 -5 -19 -53 -50 -105 -152 -257 -216 -459 -218 -680 -3 -316 149 -605 433 -828 36 -28 69 -54 73 -58 5 -3 -38 -12 -95 -19 -541 -63 -833 -256 -831 -550 1 -125 51 -246 163 -394 33 -44 60 -81 60 -83 0 -2 -12 -2 -27 -2 -17 1 -21 3 -10 6 9 2 17 6 17 8 0 2 -30 43 -67 92 -164 218 -198 433 -92 588 126 186 410 321 758 360 l64 7 -64 56 c-478 417 -555 889 -237 1455 28 49 48 90 46 93 -3 2 -56 13 -118 25 -285 52 -453 139 -629 325 -114 121 -189 257 -216 397 l-6 28 -72 -67 c-273 -252 -555 -338 -857 -260 -92 24 -273 113 -355 176 -38 29 -114 96 -167 148 l-98 96 -11 -32 c-21 -61 -88 -192 -130 -255 -59 -87 -241 -270 -324 -324 -38 -25 -96 -58 -130 -73 -61 -28 -215 -70 -256 -70 -19 0 -9 -14 58 -82 131 -136 209 -269 238 -404 19 -87 18 -133 0 -213 -28 -116 -77 -192 -217 -335 -70 -72 -128 -131 -128 -132 0 0 23 -16 51 -34 124 -80 232 -206 269 -314 66 -194 -42 -467 -290 -730 -49 -52 -90 -97 -90 -100 0 -2 37 -9 83 -16 90 -13 199 -54 274 -103 112 -74 262 -239 331 -366 l27 -48 100 74 c90 67 156 110 130 86 -22 -21 -237 -175 -240 -171 -1 1 -13 23 -25 48 -98 194 -298 374 -478 430 -34 11 -102 24 -149 30 -48 6 -89 13 -91 15 -2 2 28 38 67 81 251 274 366 535 321 725 -36 154 -143 274 -313 354 l-69 32 71 52 c39 29 100 85 137 124 271 293 241 609 -91 943 l-100 102 75 6 c219 16 427 112 581 265 109 109 209 278 260 439 13 39 25 72 27 72 3 0 48 -42 101 -93z m1356 -547 c32 -33 40 -49 41 -80 1 -22 2 -226 3 -454 l1 -414 120 -3 119 -4 44 -43 c41 -40 46 -51 60 -125 9 -45 22 -126 28 -180 l13 -98 -45 -45 -44 -45 -152 6 -152 6 -7 -37 c-7 -37 1 -191 12 -230 8 -29 84 -44 219 -44 92 0 103 -2 123 -23 20 -21 21 -29 16 -197 -6 -168 -7 -176 -30 -200 l-25 -25 -192 3 c-208 3 -266 13 -346 60 -58 34 -140 116 -169 170 -31 56 -21 54 12 -2 48 -82 148 -151 263 -181 59 -15 329 -21 406 -9 l37 7 0 167 0 167 -139 5 c-152 6 -183 16 -225 71 -19 26 -21 44 -24 198 l-4 169 191 0 c105 0 191 2 191 4 0 8 -40 313 -45 344 l-6 32 -164 0 -165 0 0 495 0 495 -200 0 -200 0 0 -495 0 -495 -165 0 -165 0 0 -190 0 -190 165 0 165 0 -2 -122 -2 -123 -3 118 -4 117 -166 -2 -167 -3 -7 25 c-4 14 -7 105 -8 202 -1 221 -12 208 176 208 l132 0 -5 123 c-2 67 -6 282 -8 478 l-5 356 32 31 c18 16 41 32 52 34 11 2 101 5 200 7 l180 2 40 -41z m-962 -2757 c-13 -2 -35 -2 -50 0 -16 2 -5 4 22 4 28 0 40 -2 28 -4z m185 -43 c34 -16 62 -32 62 -35 0 -3 -19 4 -42 16 -23 12 -58 27 -77 34 -20 8 -29 14 -21 14 8 1 43 -12 78 -29z m-418 5 c-46 -18 -64 -17 -25 0 17 8 37 14 45 14 8 0 -1 -7 -20 -14z m570 -110 c19 -19 32 -35 29 -35 -3 0 -20 16 -39 35 -19 19 -32 35 -29 35 3 0 20 -16 39 -35z m125 -176 c19 -37 35 -71 35 -75 0 -5 -18 24 -39 63 -21 40 -50 89 -65 110 l-27 38 30 -34 c17 -19 46 -65 66 -102z m1123 104 c-16 -2 -40 -2 -55 0 -16 2 -3 4 27 4 30 0 43 -2 28 -4z m-190 -20 c-10 -2 -26 -2 -35 0 -10 3 -2 5 17 5 19 0 27 -2 18 -5z m-549 -137 c-10 -9 -109 -56 -109 -51 0 6 91 54 104 55 5 0 7 -2 5 -4z m-120 -60 c-13 -12 -170 -126 -174 -126 -3 0 -5 5 -5 12 0 6 3 9 6 5 3 -3 42 21 86 54 44 32 82 59 86 59 3 0 3 -2 1 -4z m-185 -76 c5 -17 4 -20 -2 -10 -5 8 -13 26 -16 40 -5 17 -4 20 2 10 5 -8 13 -26 16 -40z"/>
 </g>
<g id="layer103" fill="#606060" stroke="none">
 <path d="M1030 4003 c-83 -250 -193 -417 -353 -537 -145 -109 -293 -162 -487 -175 -58 -4 -113 -12 -123 -17 -17 -10 -15 -13 20 -39 119 -90 249 -238 311 -356 69 -128 88 -230 67 -351 -27 -158 -129 -294 -334 -448 -81 -61 -83 -64 -60 -73 113 -43 213 -102 272 -160 86 -85 119 -155 125 -266 6 -109 -9 -174 -68 -296 -55 -113 -136 -225 -275 -378 -52 -58 -95 -107 -95 -110 0 -2 51 -7 113 -10 61 -4 139 -14 171 -22 199 -55 381 -218 497 -445 17 -33 33 -60 37 -60 4 1 68 46 142 101 216 161 381 229 556 229 107 0 194 -27 271 -83 104 -78 167 -170 239 -352 26 -66 51 -124 55 -129 5 -5 48 21 101 62 104 78 191 125 319 170 167 59 435 108 659 120 l122 7 -89 121 c-125 170 -172 281 -173 405 -1 251 278 436 744 494 100 13 226 41 226 50 0 1 -42 34 -92 73 -289 220 -437 469 -455 764 -15 242 61 482 251 793 l54 90 -91 7 c-242 19 -467 89 -617 191 -167 115 -276 293 -305 502 -8 55 -19 117 -25 137 l-10 36 -118 -117 c-193 -193 -357 -286 -562 -317 -76 -11 -119 -12 -184 -5 -241 28 -445 140 -687 378 l-117 115 -32 -99z m149 -66 c212 -203 395 -309 611 -353 106 -21 263 -15 368 16 152 43 315 144 460 284 51 49 94 87 95 85 2 -2 9 -44 15 -94 17 -132 79 -279 161 -383 127 -160 367 -282 646 -327 49 -8 107 -15 127 -15 20 0 40 -4 43 -10 3 -5 -19 -53 -50 -105 -152 -257 -216 -459 -218 -680 -3 -316 149 -605 433 -828 36 -28 69 -54 73 -58 5 -3 -38 -12 -95 -19 -777 -91 -1036 -458 -667 -945 l60 -80 -48 -7 c-26 -3 -111 -14 -187 -22 -242 -28 -493 -94 -643 -169 -38 -19 -106 -63 -152 -97 -46 -34 -84 -60 -86 -58 -1 2 -15 37 -30 78 -147 395 -393 545 -734 450 -125 -35 -248 -102 -409 -223 -51 -38 -94 -68 -96 -66 -1 2 -19 34 -40 71 -52 95 -144 208 -222 272 -121 100 -233 144 -434 173 l-54 8 72 79 c252 276 367 536 322 727 -36 154 -143 274 -313 354 l-69 32 71 52 c39 29 100 85 137 124 271 293 241 609 -91 943 l-100 102 75 6 c219 16 427 112 581 265 109 109 209 278 260 439 13 39 25 72 27 72 3 0 48 -42 101 -93z"/>
 <path d="M2100 2855 l0 -495 -165 0 -165 0 0 -190 0 -190 165 0 165 0 0 -167 c1 -95 7 -201 14 -243 33 -187 153 -318 333 -365 59 -15 329 -21 406 -9 l37 7 0 167 0 167 -139 5 c-152 6 -183 16 -225 71 -19 26 -21 44 -24 198 l-4 169 191 0 c105 0 191 2 191 4 0 8 -40 313 -45 344 l-6 32 -164 0 -165 0 0 495 0 495 -200 0 -200 0 0 -495z"/>
 </g>
<g id="layer104" fill="#a1a1a1" stroke="none">
 <path d="M1030 3993 c-103 -311 -296 -541 -538 -639 -92 -37 -169 -54 -288 -64 -61 -5 -121 -13 -134 -18 -23 -8 -22 -10 21 -39 71 -49 231 -222 283 -305 73 -119 100 -203 99 -318 0 -75 -5 -108 -23 -155 -49 -130 -160 -261 -317 -378 l-83 -61 78 -31 c234 -93 368 -275 347 -470 -19 -182 -124 -362 -362 -624 l-87 -96 114 -6 c63 -3 136 -11 162 -17 197 -48 387 -214 509 -445 l35 -67 140 101 c323 236 570 292 784 178 72 -38 160 -129 212 -218 20 -35 57 -116 83 -182 31 -80 50 -117 58 -112 7 4 46 33 88 64 136 103 247 154 454 209 158 42 339 70 498 77 75 3 137 9 137 14 0 4 -34 53 -75 108 -137 185 -181 293 -173 430 15 255 281 422 774 485 121 16 184 31 184 46 0 4 -24 23 -52 42 -169 114 -309 271 -393 443 -79 162 -90 209 -90 405 0 149 3 175 27 261 36 130 104 281 193 429 52 88 71 127 62 132 -7 4 -34 8 -62 8 -66 0 -222 26 -315 52 -357 99 -577 330 -620 651 -13 98 -28 159 -39 155 -4 -2 -33 -32 -66 -68 -157 -173 -339 -295 -514 -342 -107 -29 -295 -29 -403 0 -186 50 -346 151 -534 334 -72 70 -134 128 -137 128 -3 0 -20 -44 -37 -97z m322 -203 c199 -148 382 -214 593 -213 247 1 449 94 672 309 53 51 98 93 99 91 1 -1 7 -42 13 -92 43 -326 253 -560 601 -669 92 -29 288 -66 351 -66 21 0 39 -2 39 -5 0 -2 -19 -35 -41 -72 -109 -178 -195 -382 -223 -533 -18 -95 -21 -269 -5 -356 43 -244 190 -474 417 -651 46 -36 81 -67 79 -70 -2 -2 -56 -10 -118 -18 -155 -20 -257 -42 -363 -76 -464 -152 -575 -476 -292 -851 36 -48 66 -91 66 -96 0 -5 -48 -12 -107 -15 -190 -11 -444 -61 -618 -120 -110 -38 -212 -91 -300 -157 -44 -33 -83 -60 -86 -60 -3 0 -25 49 -48 109 -148 387 -422 528 -775 400 -107 -39 -191 -86 -320 -181 -59 -44 -113 -81 -120 -84 -6 -2 -22 17 -35 42 -70 130 -197 273 -315 352 -93 61 -213 102 -327 109 -49 3 -89 8 -89 10 0 3 30 37 66 76 244 266 365 521 336 709 -25 162 -131 290 -320 383 l-63 32 90 71 c225 178 330 399 288 606 -32 155 -117 295 -273 451 -51 51 -90 96 -87 99 4 3 35 6 69 6 74 0 208 29 294 64 243 99 452 339 545 628 l29 86 107 -100 c60 -56 137 -122 171 -148z"/>
 <path d="M2100 2855 l0 -495 -165 0 -165 0 0 -190 0 -190 164 0 164 0 5 -202 c3 -134 10 -220 19 -253 49 -168 160 -277 325 -320 59 -15 329 -21 406 -9 l37 7 0 167 0 167 -139 5 c-152 6 -183 16 -225 71 -19 26 -21 44 -24 198 l-4 169 191 0 c105 0 191 2 191 4 0 8 -40 313 -45 344 l-6 32 -164 0 -165 0 0 495 0 495 -200 0 -200 0 0 -495z"/>
 </g>
<g id="layer105" fill="#f2ce61" stroke="none">
 <path d="M1035 4002 c-127 -399 -376 -638 -735 -706 -45 -9 -108 -16 -139 -16 -59 0 -101 -8 -101 -19 1 -3 26 -24 57 -46 112 -80 242 -239 303 -370 85 -180 79 -334 -17 -492 -58 -95 -125 -166 -239 -254 -57 -44 -104 -82 -104 -83 0 -2 28 -14 62 -26 62 -22 167 -86 220 -132 81 -71 138 -198 138 -307 0 -174 -116 -389 -349 -646 l-91 -100 92 -7 c172 -14 277 -49 397 -131 101 -69 217 -208 283 -339 l33 -66 135 99 c269 197 479 268 671 225 185 -41 314 -178 414 -439 32 -86 52 -124 59 -119 97 74 179 133 211 151 169 98 482 176 824 204 l141 12 -84 112 c-97 129 -129 192 -158 306 -18 72 -19 89 -9 147 43 240 310 399 762 455 118 14 199 32 199 44 0 3 -30 26 -67 50 -36 25 -101 78 -144 119 -292 274 -396 616 -299 985 35 133 126 327 231 492 l38 60 -57 7 c-31 4 -94 12 -140 18 -181 23 -384 96 -508 181 -167 115 -278 302 -309 523 -24 164 -11 161 -139 32 -158 -159 -304 -252 -476 -302 -89 -26 -307 -26 -400 -1 -95 26 -274 117 -366 185 -43 32 -131 109 -195 170 l-116 111 -28 -87z m130 -43 c193 -195 392 -316 603 -365 97 -23 267 -20 367 6 169 43 317 133 477 288 l106 104 7 -59 c15 -128 36 -200 86 -303 45 -90 64 -117 138 -190 157 -156 344 -236 646 -277 66 -9 122 -18 124 -19 2 -2 -21 -45 -52 -96 -98 -166 -154 -296 -198 -458 -20 -73 -23 -108 -23 -245 1 -145 3 -168 28 -249 68 -226 219 -435 419 -581 81 -59 85 -56 -105 -80 -151 -18 -291 -53 -406 -100 -398 -162 -470 -466 -198 -827 36 -48 66 -89 66 -91 0 -2 -48 -7 -107 -11 -122 -8 -351 -45 -471 -76 -201 -51 -337 -112 -466 -210 -44 -33 -81 -59 -82 -57 -1 1 -21 49 -43 107 -54 140 -103 221 -181 301 -102 104 -210 149 -361 149 -168 0 -343 -71 -558 -229 l-125 -90 -31 57 c-94 175 -246 328 -396 397 -72 33 -163 55 -258 63 l-79 7 89 100 c168 189 270 354 304 495 25 103 18 226 -18 304 -52 113 -152 206 -290 271 l-68 32 68 50 c84 63 187 169 237 244 88 134 111 299 61 456 -41 132 -117 242 -264 387 -50 49 -91 90 -91 91 0 1 42 5 93 8 384 23 699 286 832 695 15 45 30 82 33 82 4 0 43 -36 87 -81z"/>
 <path d="M2100 2855 l0 -495 -165 0 -165 0 0 -190 0 -190 164 0 164 0 5 -202 c3 -134 10 -220 19 -253 49 -168 160 -277 325 -320 59 -15 329 -21 406 -9 l37 7 0 167 0 167 -139 5 c-152 6 -183 16 -225 71 -19 26 -21 44 -24 198 l-4 169 191 0 c105 0 191 2 191 4 0 8 -40 313 -45 344 l-6 32 -164 0 -165 0 0 495 0 495 -200 0 -200 0 0 -495z"/>
 </g>
<g id="layer106" fill="#f8f8f8" stroke="none">
 <path d="M1035 4002 c-127 -399 -376 -638 -735 -706 -45 -9 -108 -16 -139 -16 -59 0 -101 -8 -101 -19 1 -3 26 -24 57 -46 112 -80 242 -239 303 -370 85 -180 79 -334 -17 -492 -58 -95 -125 -166 -239 -254 -57 -44 -104 -82 -104 -83 0 -2 28 -14 62 -26 62 -22 167 -86 220 -132 81 -71 138 -198 138 -307 0 -174 -116 -389 -349 -646 l-91 -100 92 -7 c172 -14 277 -49 397 -131 101 -69 217 -208 283 -339 l33 -66 135 99 c269 197 479 268 671 225 185 -41 314 -178 414 -439 32 -86 52 -124 59 -119 97 74 179 133 211 151 169 98 482 176 824 204 l141 12 -84 112 c-97 129 -129 192 -158 306 -18 72 -19 89 -9 147 43 240 310 399 762 455 118 14 199 32 199 44 0 3 -30 26 -67 50 -36 25 -101 78 -144 119 -292 274 -396 616 -299 985 35 133 126 327 231 492 l38 60 -57 7 c-31 4 -94 12 -140 18 -181 23 -384 96 -508 181 -167 115 -278 302 -309 523 -24 164 -11 161 -139 32 -158 -159 -304 -252 -476 -302 -89 -26 -307 -26 -400 -1 -95 26 -274 117 -366 185 -43 32 -131 109 -195 170 l-116 111 -28 -87z m130 -43 c193 -195 392 -316 603 -365 97 -23 267 -20 367 6 169 43 317 133 477 288 l106 104 7 -59 c15 -128 36 -200 86 -303 45 -90 64 -117 138 -190 157 -156 344 -236 646 -277 66 -9 122 -18 124 -19 2 -2 -21 -45 -52 -96 -98 -166 -154 -296 -198 -458 -20 -73 -23 -108 -23 -245 1 -145 3 -168 28 -249 68 -226 219 -435 419 -581 81 -59 85 -56 -105 -80 -151 -18 -291 -53 -406 -100 -398 -162 -470 -466 -198 -827 36 -48 66 -89 66 -91 0 -2 -48 -7 -107 -11 -122 -8 -351 -45 -471 -76 -201 -51 -337 -112 -466 -210 -44 -33 -81 -59 -82 -57 -1 1 -21 49 -43 107 -54 140 -103 221 -181 301 -102 104 -210 149 -361 149 -168 0 -343 -71 -558 -229 l-125 -90 -31 57 c-94 175 -246 328 -396 397 -72 33 -163 55 -258 63 l-79 7 89 100 c168 189 270 354 304 495 25 103 18 226 -18 304 -52 113 -152 206 -290 271 l-68 32 68 50 c84 63 187 169 237 244 88 134 111 299 61 456 -41 132 -117 242 -264 387 -50 49 -91 90 -91 91 0 1 42 5 93 8 384 23 699 286 832 695 15 45 30 82 33 82 4 0 43 -36 87 -81z"/>
 </g>

</svg>