<!DOCTYPE svg PUBLIC "-//W3C//DTD SVG 20010904//EN" "http://www.w3.org/TR/2001/REC-SVG-20010904/DTD/svg10.dtd">
<svg version="1.0" xmlns="http://www.w3.org/2000/svg" width="404px" height="415px" viewBox="0 0 4040 4150" preserveAspectRatio="xMidYMid meet">
<g id="layer101" fill="#030405" stroke="none">
 <path d="M1023 4108 c-32 -34 -47 -63 -73 -142 -57 -173 -159 -347 -244 -417 -141 -117 -368 -199 -547 -199 -70 0 -71 0 -117 -45 l-47 -46 64 -57 c183 -162 264 -265 316 -403 36 -98 45 -229 21 -313 -37 -126 -111 -229 -231 -319 -44 -34 -99 -79 -123 -101 l-43 -39 43 -44 c23 -24 47 -43 53 -43 18 0 167 -76 205 -104 83 -63 137 -199 127 -320 -15 -175 -106 -344 -321 -594 -58 -68 -106 -127 -106 -133 0 -5 9 -9 19 -9 11 0 23 -4 26 -10 3 -5 39 -10 78 -10 166 0 296 -41 415 -129 111 -82 175 -162 257 -318 20 -40 41 -73 46 -73 4 0 72 47 151 105 238 175 407 243 578 232 101 -6 156 -24 230 -76 103 -71 179 -186 260 -393 23 -60 45 -108 50 -108 5 0 55 35 112 78 57 42 144 96 194 119 192 89 503 156 787 170 70 3 127 9 127 12 0 3 -39 58 -86 121 -47 63 -98 140 -114 171 -92 179 -75 364 44 481 116 114 360 196 680 228 119 12 129 15 165 54 24 26 24 26 5 47 -10 12 -52 46 -93 76 -206 153 -349 369 -398 598 -23 107 -20 292 5 395 43 177 120 349 232 519 l61 94 -35 36 c-35 36 -38 37 -149 48 -166 17 -331 63 -466 130 -144 71 -208 132 -268 253 -55 113 -70 162 -84 272 -14 114 -17 124 -69 173 l-41 40 -107 -112 c-59 -61 -132 -129 -162 -151 -296 -209 -595 -235 -910 -77 -113 57 -226 141 -358 270 -60 58 -111 105 -114 105 -2 0 -22 -19 -45 -42z"/>
 </g>
<g id="layer102" fill="#173d73" stroke="none">
 <path d="M1024 3988 c-49 -148 -110 -266 -189 -366 -155 -195 -383 -315 -625 -329 -93 -5 -160 -18 -160 -31 0 -4 23 -22 50 -40 69 -47 201 -188 259 -276 75 -116 103 -194 109 -307 4 -80 1 -109 -16 -166 -40 -132 -138 -253 -306 -381 -95 -72 -99 -76 -75 -85 278 -112 399 -250 399 -457 0 -185 -97 -367 -344 -642 -53 -58 -96 -108 -96 -111 0 -2 51 -7 113 -10 61 -4 139 -14 171 -22 198 -54 382 -219 495 -442 17 -35 35 -63 39 -63 4 1 68 46 142 100 220 163 383 230 556 230 240 0 397 -139 519 -461 20 -52 40 -98 45 -103 6 -6 46 19 102 61 111 84 204 133 346 179 183 60 504 114 680 114 86 0 88 -11 -25 140 -84 113 -123 188 -149 291 -77 302 198 527 731 595 110 14 225 39 225 49 0 2 -42 35 -92 73 -289 217 -440 476 -455 777 -11 237 60 463 240 760 l67 110 -32 3 c-308 23 -529 90 -693 206 -162 116 -260 288 -295 516 -10 63 -21 123 -25 133 -6 14 -23 0 -96 -77 -199 -211 -406 -325 -619 -344 -296 -26 -545 85 -841 375 l-117 114 -38 -113z m131 -29 c180 -182 371 -304 570 -361 115 -33 315 -33 430 0 157 45 307 137 457 281 62 59 99 88 102 80 3 -8 10 -52 16 -99 35 -257 199 -471 452 -590 133 -62 363 -120 480 -120 20 0 40 -4 43 -10 3 -5 -14 -43 -38 -83 -103 -168 -180 -351 -213 -503 -22 -103 -23 -303 -1 -400 32 -144 97 -279 192 -404 51 -66 191 -202 257 -249 27 -19 47 -35 45 -37 -1 -1 -63 -10 -137 -19 -484 -61 -758 -234 -794 -500 -16 -115 49 -288 164 -439 33 -44 60 -81 60 -83 0 -2 -12 -2 -27 -2 -17 1 -21 3 -10 6 9 2 17 6 17 8 0 2 -30 43 -67 92 -164 218 -198 433 -92 588 126 186 410 321 758 360 l64 7 -64 56 c-478 417 -555 889 -237 1455 28 49 48 90 46 93 -3 2 -56 13 -118 25 -285 52 -453 139 -629 325 -114 121 -189 257 -216 397 l-6 28 -72 -67 c-273 -252 -555 -338 -857 -260 -92 24 -273 113 -355 176 -38 29 -114 96 -167 148 l-98 96 -11 -32 c-21 -61 -88 -192 -130 -255 -59 -87 -241 -270 -324 -324 -38 -25 -96 -58 -130 -73 -61 -28 -215 -70 -256 -70 -19 0 -9 -14 58 -82 131 -136 209 -269 238 -404 19 -87 18 -133 0 -213 -28 -116 -77 -192 -217 -335 -70 -72 -128 -131 -128 -132 0 0 23 -16 51 -34 124 -80 232 -206 269 -314 66 -194 -42 -467 -290 -730 -49 -52 -90 -97 -90 -100 0 -2 37 -9 83 -16 90 -13 199 -54 274 -103 112 -74 262 -239 331 -366 l27 -48 100 74 c90 67 156 110 130 86 -22 -21 -237 -175 -240 -171 -1 1 -13 23 -25 48 -57 113 -163 240 -263 316 -114 86 -213 123 -406 151 l-53 8 72 80 c168 187 282 375 316 520 54 232 -54 432 -298 555 l-77 39 68 51 c130 96 246 239 292 359 30 78 36 207 15 291 -38 147 -113 268 -260 416 l-101 102 75 5 c180 14 364 85 502 195 159 126 283 319 349 540 7 23 15 42 18 42 4 0 38 -32 76 -71z m1380 -569 c32 -33 40 -49 41 -80 1 -22 2 -226 3 -454 l1 -414 120 -3 119 -4 44 -43 c41 -40 46 -51 60 -125 9 -45 22 -126 28 -180 l13 -98 -45 -45 -44 -45 -152 6 -152 6 -7 -37 c-7 -37 1 -191 12 -230 8 -29 84 -44 219 -44 92 0 103 -2 123 -23 20 -21 21 -29 16 -197 -6 -168 -7 -176 -30 -200 l-25 -25 -192 3 c-208 3 -266 13 -346 60 -55 32 -141 117 -164 162 -17 34 -17 34 0 10 66 -92 159 -157 267 -186 53 -15 348 -20 414 -8 l32 6 0 173 0 174 -149 3 c-133 3 -153 5 -178 24 -51 38 -58 65 -61 242 l-4 162 191 0 c105 0 191 3 191 8 0 13 -41 327 -46 350 -4 22 -6 22 -169 22 l-165 0 0 495 0 495 -200 0 -200 0 0 -495 0 -495 -165 0 -165 0 0 -190 0 -190 165 0 165 0 -2 -122 -2 -123 -3 118 -4 117 -166 -2 -167 -3 -7 25 c-4 14 -7 105 -8 202 -1 221 -12 208 176 208 l132 0 -5 123 c-2 67 -6 282 -8 478 l-5 356 32 31 c18 16 41 32 52 34 11 2 101 5 200 7 l180 2 40 -41z m-962 -2757 c-13 -2 -35 -2 -50 0 -16 2 -5 4 22 4 28 0 40 -2 28 -4z m185 -43 c34 -16 62 -32 62 -35 0 -3 -19 4 -42 16 -23 12 -58 27 -77 34 -20 8 -29 14 -21 14 8 1 43 -12 78 -29z m-418 5 c-46 -18 -64 -17 -25 0 17 8 37 14 45 14 8 0 -1 -7 -20 -14z m570 -110 c19 -19 32 -35 29 -35 -3 0 -20 16 -39 35 -19 19 -32 35 -29 35 3 0 20 -16 39 -35z m125 -176 c19 -37 35 -71 35 -75 0 -5 -18 24 -39 63 -21 40 -50 89 -65 110 l-27 38 30 -34 c17 -19 46 -65 66 -102z m1123 104 c-16 -2 -40 -2 -55 0 -16 2 -3 4 27 4 30 0 43 -2 28 -4z m-190 -20 c-10 -2 -26 -2 -35 0 -10 3 -2 5 17 5 19 0 27 -2 18 -5z m-549 -137 c-10 -9 -109 -56 -109 -51 0 6 91 54 104 55 5 0 7 -2 5 -4z m-120 -60 c-13 -12 -170 -126 -174 -126 -3 0 -5 5 -5 12 0 6 3 9 6 5 3 -3 42 21 86 54 44 32 82 59 86 59 3 0 3 -2 1 -4z m-185 -76 c5 -17 4 -20 -2 -10 -5 8 -13 26 -16 40 -5 17 -4 20 2 10 5 -8 13 -26 16 -40z"/>
 </g>
<g id="layer103" fill="#606060" stroke="none">
 <path d="M1024 3988 c-97 -293 -257 -494 -479 -604 -107 -53 -262 -94 -354 -94 -36 0 -84 -5 -106 -11 l-40 -12 40 -31 c183 -143 330 -339 370 -492 22 -84 20 -211 -5 -281 -45 -130 -149 -256 -308 -375 -90 -68 -94 -72 -71 -81 13 -5 60 -27 104 -48 199 -95 295 -228 295 -409 0 -185 -102 -375 -343 -642 -54 -58 -97 -109 -97 -112 0 -3 36 -6 79 -6 300 0 548 -166 700 -467 17 -35 34 -63 37 -63 3 0 67 45 142 100 238 174 397 236 581 228 65 -3 114 -12 151 -26 137 -53 251 -193 335 -408 27 -69 53 -128 58 -131 4 -2 50 27 100 66 112 85 243 149 403 195 155 45 393 84 563 94 l134 7 -87 117 c-131 177 -184 307 -174 433 20 248 277 407 765 475 78 10 156 25 174 33 l33 13 -90 66 c-113 84 -250 225 -314 326 -227 353 -196 751 96 1223 30 48 54 92 54 98 0 6 -20 11 -47 11 -65 0 -231 26 -328 51 -360 92 -584 321 -630 644 -8 55 -20 117 -25 138 l-11 38 -98 -103 c-223 -234 -439 -340 -691 -340 -259 0 -483 110 -746 365 l-132 128 -38 -113z m166 -61 c174 -167 351 -276 535 -329 115 -33 315 -33 430 0 158 46 340 160 480 301 38 39 72 71 76 71 3 0 9 -30 13 -67 11 -107 24 -150 81 -268 83 -170 187 -272 370 -360 133 -65 368 -125 486 -125 21 0 41 -5 44 -10 3 -6 -16 -47 -43 -93 -157 -261 -226 -475 -225 -702 1 -227 67 -414 214 -600 56 -72 184 -196 251 -244 27 -19 47 -35 45 -37 -1 -1 -63 -10 -137 -19 -745 -94 -991 -462 -629 -940 l60 -80 -48 -7 c-26 -3 -111 -14 -187 -22 -242 -28 -493 -94 -643 -169 -38 -19 -106 -63 -152 -97 -46 -34 -84 -60 -86 -58 -1 2 -15 37 -30 78 -15 41 -45 109 -66 150 -156 303 -428 401 -754 271 -101 -41 -177 -86 -308 -183 -59 -44 -109 -79 -111 -77 -2 2 -17 31 -35 65 -46 88 -149 214 -228 279 -119 99 -232 143 -433 172 l-54 8 73 80 c144 157 247 316 298 455 23 63 27 92 28 180 0 98 -2 109 -32 173 -18 38 -47 86 -63 107 -41 52 -140 126 -223 165 l-67 33 70 52 c85 63 192 178 239 255 156 258 78 559 -218 837 l-80 75 77 6 c397 31 710 294 843 706 13 39 25 71 27 71 2 0 53 -46 112 -103z"/>
 <path d="M2100 2855 l0 -495 -165 0 -165 0 0 -190 0 -190 164 0 164 0 4 -207 c4 -183 7 -216 27 -273 54 -156 158 -254 316 -297 52 -14 348 -19 413 -7 l32 6 0 173 0 174 -149 3 c-133 3 -153 5 -178 24 -51 38 -58 65 -61 242 l-4 162 191 0 c105 0 191 3 191 8 0 13 -41 327 -46 350 -4 22 -6 22 -169 22 l-165 0 0 495 0 495 -200 0 -200 0 0 -495z"/>
 </g>
<g id="layer104" fill="#a1a1a1" stroke="none">
 <path d="M1030 3993 c-103 -311 -296 -541 -538 -639 -92 -37 -169 -54 -288 -64 -61 -5 -121 -13 -134 -18 -23 -8 -22 -10 21 -39 71 -49 231 -222 283 -305 73 -119 100 -203 99 -318 0 -75 -5 -108 -23 -155 -49 -130 -160 -261 -317 -378 l-83 -61 78 -31 c234 -93 368 -275 347 -470 -19 -182 -124 -362 -362 -624 l-87 -96 114 -6 c63 -3 136 -11 162 -17 197 -48 387 -214 509 -445 l35 -67 140 101 c323 236 570 292 784 178 72 -38 160 -129 212 -218 20 -35 57 -116 83 -182 31 -80 50 -117 58 -112 7 4 46 33 88 64 136 103 247 154 454 209 158 42 339 70 498 77 75 3 137 9 137 14 0 4 -34 53 -75 108 -137 185 -181 293 -173 430 15 255 281 422 774 485 121 16 184 31 184 46 0 4 -24 23 -52 42 -169 114 -309 271 -393 443 -79 162 -90 209 -90 405 0 149 3 175 27 261 36 130 104 281 193 429 52 88 71 127 62 132 -7 4 -34 8 -62 8 -66 0 -222 26 -315 52 -357 99 -577 330 -620 651 -13 98 -28 159 -39 155 -4 -2 -33 -32 -66 -68 -157 -173 -339 -295 -514 -342 -107 -29 -295 -29 -403 0 -186 50 -346 151 -534 334 -72 70 -134 128 -137 128 -3 0 -20 -44 -37 -97z m322 -203 c199 -148 382 -214 593 -213 247 1 449 94 672 309 53 51 98 93 99 91 1 -1 7 -42 13 -92 43 -326 253 -560 601 -669 92 -29 288 -66 351 -66 21 0 39 -2 39 -5 0 -2 -19 -35 -41 -72 -109 -178 -195 -382 -223 -533 -18 -95 -21 -269 -5 -356 43 -244 190 -474 417 -651 46 -36 81 -67 79 -70 -2 -2 -56 -10 -118 -18 -155 -20 -257 -42 -363 -76 -464 -152 -575 -476 -292 -851 36 -48 66 -91 66 -96 0 -5 -48 -12 -107 -15 -190 -11 -444 -61 -618 -120 -110 -38 -212 -91 -300 -157 -44 -33 -83 -60 -86 -60 -3 0 -25 49 -48 109 -148 387 -422 528 -775 400 -107 -39 -191 -86 -320 -181 -59 -44 -113 -81 -120 -84 -6 -2 -22 17 -35 42 -70 130 -197 273 -315 352 -93 61 -213 102 -327 109 -49 3 -89 8 -89 10 0 3 30 37 66 76 244 266 365 521 336 709 -25 162 -131 290 -320 383 l-63 32 90 71 c225 178 330 399 288 606 -32 155 -117 295 -273 451 -51 51 -90 96 -87 99 4 3 35 6 69 6 74 0 208 29 294 64 243 99 452 339 545 628 l29 86 107 -100 c60 -56 137 -122 171 -148z"/>
 <path d="M2100 2855 l0 -495 -165 0 -165 0 0 -190 0 -190 164 0 164 0 4 -207 c4 -183 7 -216 27 -273 54 -156 158 -254 316 -297 52 -14 348 -19 413 -7 l32 6 0 173 0 174 -149 3 c-133 3 -153 5 -178 24 -51 38 -58 65 -61 242 l-4 162 191 0 c105 0 191 3 191 8 0 13 -41 327 -46 350 -4 22 -6 22 -169 22 l-165 0 0 495 0 495 -200 0 -200 0 0 -495z"/>
 </g>
<g id="layer105" fill="#e6de8a" stroke="none">
 <path d="M1035 4002 c-127 -399 -376 -638 -735 -706 -45 -9 -108 -16 -139 -16 -59 0 -101 -8 -101 -19 1 -3 26 -24 57 -46 112 -80 242 -239 303 -370 85 -180 79 -334 -17 -492 -58 -95 -125 -166 -239 -254 -57 -44 -104 -82 -104 -83 0 -2 28 -14 62 -26 165 -60 297 -184 338 -318 64 -207 -41 -449 -334 -772 l-86 -95 92 -7 c172 -14 277 -49 397 -131 101 -69 217 -208 283 -339 l33 -66 135 99 c269 197 479 268 671 225 185 -41 314 -178 415 -442 l47 -124 46 35 c106 81 211 145 291 178 172 71 434 127 702 150 l148 12 -83 110 c-96 129 -131 196 -159 308 -18 72 -19 89 -9 147 43 240 310 399 762 455 118 14 199 32 199 44 0 3 -30 26 -65 50 -182 122 -346 321 -420 511 -59 151 -76 367 -42 525 35 156 125 362 235 540 l50 80 -56 7 c-32 4 -94 12 -140 18 -181 23 -384 96 -508 181 -167 115 -278 302 -309 523 -24 164 -11 161 -139 32 -158 -159 -304 -252 -476 -302 -89 -26 -307 -26 -400 -1 -95 26 -274 117 -366 185 -43 32 -131 109 -195 170 l-116 111 -28 -87z m159 -69 c61 -60 141 -129 178 -156 211 -150 437 -218 651 -196 210 21 393 117 589 307 l106 104 7 -59 c15 -128 36 -200 86 -303 45 -90 64 -117 138 -190 157 -156 344 -236 646 -277 66 -9 122 -18 124 -19 2 -2 -21 -45 -52 -96 -98 -166 -154 -296 -198 -458 -20 -73 -23 -108 -23 -245 1 -145 3 -168 28 -250 33 -109 88 -221 153 -312 58 -82 187 -212 271 -273 74 -54 78 -51 -110 -75 -151 -18 -291 -53 -406 -100 -398 -162 -470 -466 -198 -827 36 -48 66 -89 66 -91 0 -2 -48 -7 -107 -11 -122 -8 -351 -45 -471 -76 -201 -51 -337 -112 -466 -210 -44 -33 -80 -59 -82 -57 -1 1 -20 49 -43 107 -54 140 -103 221 -181 301 -111 113 -220 154 -389 146 -173 -8 -313 -68 -527 -223 l-128 -93 -31 57 c-94 175 -246 328 -396 397 -72 33 -163 55 -258 63 l-79 7 89 100 c170 191 269 353 304 495 25 103 18 226 -18 304 -52 113 -152 206 -290 271 l-68 32 68 50 c84 63 187 169 237 244 88 134 111 299 61 456 -41 132 -117 242 -264 387 -50 49 -91 90 -91 92 0 2 30 4 68 4 74 0 208 27 292 59 103 39 210 110 300 200 124 124 208 263 265 439 15 45 29 82 32 82 3 0 56 -48 117 -107z"/>
 <path d="M2100 2855 l0 -495 -165 0 -165 0 0 -190 0 -190 164 0 164 0 4 -207 c4 -183 7 -216 27 -273 54 -156 158 -254 316 -297 52 -14 348 -19 413 -7 l32 6 0 173 0 174 -149 3 c-133 3 -153 5 -178 24 -51 38 -58 65 -61 242 l-4 162 191 0 c105 0 191 3 191 8 0 13 -41 327 -46 350 -4 22 -6 22 -169 22 l-165 0 0 495 0 495 -200 0 -200 0 0 -495z"/>
 </g>
<g id="layer106" fill="#f8f8f8" stroke="none">
 <path d="M1035 4002 c-103 -323 -300 -556 -554 -655 -94 -36 -236 -67 -316 -67 -63 0 -105 -8 -105 -19 1 -3 26 -24 57 -46 112 -80 242 -239 303 -370 85 -180 79 -334 -17 -492 -58 -95 -125 -166 -239 -254 -57 -44 -104 -82 -104 -83 0 -2 28 -14 62 -26 62 -22 167 -86 220 -132 81 -71 138 -198 138 -307 0 -174 -116 -389 -349 -646 l-91 -100 92 -7 c172 -14 277 -49 397 -131 100 -69 216 -207 283 -338 l34 -67 134 99 c269 197 479 268 671 225 185 -41 314 -178 414 -439 32 -86 52 -124 59 -119 97 74 179 133 211 151 169 98 482 176 824 204 l141 12 -84 112 c-97 129 -129 192 -158 306 -18 72 -19 89 -9 147 43 240 304 396 762 455 123 16 199 33 199 44 0 3 -30 26 -67 50 -91 62 -212 178 -283 273 -149 197 -219 444 -191 669 26 205 111 417 262 654 l38 60 -57 7 c-31 4 -94 12 -140 18 -181 23 -384 96 -506 180 -170 116 -279 301 -311 523 -24 164 -11 161 -138 33 -214 -214 -404 -311 -637 -323 -172 -9 -325 32 -498 134 -102 60 -169 113 -303 241 l-116 111 -28 -87z m130 -43 c193 -195 392 -316 603 -365 97 -23 267 -20 367 6 169 43 317 133 477 288 l106 104 7 -59 c15 -128 36 -200 86 -303 45 -90 64 -117 138 -190 99 -97 190 -154 334 -205 97 -35 250 -68 370 -80 37 -4 67 -10 67 -13 0 -3 -24 -46 -54 -96 -109 -184 -171 -337 -206 -506 -42 -200 -14 -422 74 -600 77 -157 213 -318 359 -425 81 -59 85 -56 -105 -80 -151 -18 -291 -53 -406 -100 -398 -162 -470 -466 -198 -827 36 -48 66 -89 66 -91 0 -2 -48 -7 -107 -11 -122 -8 -351 -45 -471 -76 -201 -51 -337 -112 -466 -210 -44 -33 -81 -59 -82 -57 -1 1 -21 49 -43 107 -54 140 -103 221 -181 301 -102 104 -210 149 -361 149 -168 0 -343 -71 -558 -229 l-125 -90 -31 57 c-94 175 -246 328 -396 397 -72 33 -163 55 -258 63 l-79 7 85 95 c168 189 274 360 308 500 25 103 18 226 -18 304 -52 113 -152 206 -290 271 l-69 32 70 51 c89 66 198 181 244 257 56 93 78 170 78 274 0 193 -84 354 -289 555 -50 49 -91 90 -91 92 0 2 30 4 68 4 91 0 259 42 357 90 231 112 406 325 499 608 15 45 31 82 35 82 3 0 42 -36 86 -81z"/>
 </g>

</svg>