<!DOCTYPE svg PUBLIC "-//W3C//DTD SVG 20010904//EN" "http://www.w3.org/TR/2001/REC-SVG-20010904/DTD/svg10.dtd">
<svg version="1.0" xmlns="http://www.w3.org/2000/svg" width="404px" height="415px" viewBox="0 0 4040 4150" preserveAspectRatio="xMidYMid meet">
<g id="layer101" fill="#020304" stroke="none">
 <path d="M1023 4108 c-32 -34 -47 -63 -73 -142 -57 -173 -159 -347 -244 -417 -141 -117 -368 -199 -547 -199 -70 0 -71 0 -117 -45 l-47 -46 64 -57 c183 -162 264 -265 316 -403 36 -98 45 -229 21 -313 -37 -126 -111 -229 -231 -319 -44 -34 -99 -79 -123 -101 l-43 -39 43 -44 c23 -24 47 -43 53 -43 18 0 167 -76 205 -104 83 -63 137 -199 127 -320 -15 -175 -106 -344 -321 -594 -58 -68 -106 -127 -106 -133 0 -5 9 -9 19 -9 11 0 23 -4 26 -10 3 -5 39 -10 78 -10 166 0 296 -41 415 -129 111 -82 175 -162 257 -318 20 -40 41 -73 46 -73 4 0 72 47 151 105 238 175 407 243 578 232 101 -6 156 -24 230 -76 103 -71 179 -186 260 -393 23 -60 45 -108 50 -108 5 0 55 35 112 78 57 42 144 96 194 119 192 89 503 156 787 170 70 3 127 9 127 12 0 3 -39 58 -86 121 -97 131 -136 201 -158 287 -30 114 -27 124 67 222 54 57 96 113 121 162 22 41 44 77 50 81 26 18 188 71 269 89 48 11 149 26 225 34 164 18 161 18 197 55 28 29 28 30 9 51 -10 12 -52 46 -93 76 -206 153 -349 369 -398 598 -23 107 -20 292 5 395 43 177 120 349 232 519 l61 94 -35 36 c-35 36 -38 37 -149 48 -166 17 -331 63 -466 130 -144 71 -208 132 -268 253 -55 113 -70 162 -84 272 -14 114 -17 124 -69 173 l-41 40 -107 -112 c-59 -61 -132 -129 -162 -151 -296 -209 -595 -235 -910 -77 -113 57 -226 141 -358 270 -60 58 -111 105 -114 105 -2 0 -22 -19 -45 -42z"/>
 </g>
<g id="layer102" fill="#173d72" stroke="none">
 <path d="M1029 4003 c-39 -118 -79 -211 -121 -278 -163 -261 -414 -416 -698 -432 -93 -5 -160 -18 -160 -31 0 -4 23 -22 50 -40 64 -44 195 -181 249 -261 84 -124 121 -230 121 -352 0 -187 -99 -346 -323 -516 -54 -41 -97 -76 -95 -78 2 -1 38 -17 80 -35 92 -38 204 -114 245 -167 64 -80 86 -140 91 -240 4 -80 1 -105 -21 -175 -46 -147 -136 -283 -321 -490 -53 -58 -96 -108 -96 -111 0 -2 51 -7 113 -10 61 -4 139 -14 171 -22 198 -54 382 -219 495 -442 17 -35 35 -63 39 -63 4 1 68 46 142 100 220 163 383 230 556 230 240 0 397 -139 519 -461 20 -52 40 -98 45 -103 6 -6 46 19 102 61 110 84 204 133 342 178 185 61 509 115 684 115 86 0 88 -11 -25 140 -43 58 -90 132 -105 165 -29 65 -58 165 -58 202 0 26 -12 30 -28 10 -16 -19 11 -138 52 -222 28 -59 60 -107 155 -236 12 -17 11 -19 -15 -18 -17 1 -22 3 -11 6 9 2 17 6 17 8 0 2 -30 43 -66 92 -73 96 -116 181 -141 280 -8 35 -18 62 -22 61 -3 -2 -30 -16 -60 -32 -65 -34 -121 -54 -177 -65 -51 -10 -858 4 -899 16 -18 5 155 10 430 13 449 5 462 6 525 28 206 74 378 246 452 452 l23 65 0 730 0 730 -23 65 c-74 206 -246 378 -452 452 l-65 23 -730 0 -730 0 -65 -23 c-100 -36 -198 -98 -276 -176 -78 -78 -140 -176 -176 -276 l-23 -65 0 -730 0 -730 23 -65 c74 -206 247 -379 452 -452 58 -20 89 -23 280 -28 l215 -5 -205 -5 c-181 -5 -213 -3 -270 14 -202 58 -397 227 -486 420 -50 110 -53 137 -74 926 -17 626 -16 634 13 718 38 109 98 202 199 307 93 98 187 168 274 205 109 48 152 50 867 50 732 0 732 0 859 -58 147 -67 355 -275 422 -422 54 -119 57 -142 56 -585 -1 -472 -14 -987 -25 -1006 -6 -9 -3 -10 11 -4 124 54 318 104 468 121 l58 7 -63 55 c-478 417 -555 889 -237 1455 28 49 48 90 46 93 -3 2 -56 13 -118 25 -285 52 -453 139 -629 325 -114 121 -189 257 -216 397 l-6 28 -72 -67 c-273 -252 -555 -338 -857 -260 -92 24 -273 113 -355 176 -38 29 -114 96 -167 148 l-98 96 -11 -32 c-21 -61 -88 -192 -130 -255 -59 -87 -241 -270 -324 -324 -38 -25 -96 -58 -130 -73 -61 -28 -215 -70 -256 -70 -19 0 -9 -14 58 -82 131 -136 209 -269 238 -404 19 -87 18 -133 0 -213 -28 -116 -77 -192 -217 -335 -70 -72 -128 -131 -128 -132 0 0 23 -16 51 -34 124 -80 232 -206 269 -314 66 -194 -42 -467 -290 -730 -49 -52 -90 -97 -90 -100 0 -2 37 -9 83 -16 90 -13 199 -54 274 -103 112 -74 262 -239 331 -366 l27 -48 100 74 c90 67 156 110 130 86 -22 -21 -237 -175 -240 -171 -1 1 -13 23 -25 48 -57 113 -163 240 -263 316 -114 86 -213 123 -406 151 l-53 8 72 80 c168 187 282 375 316 520 54 232 -54 432 -298 555 l-77 39 68 51 c130 96 246 239 292 359 30 78 36 207 15 291 -38 147 -113 268 -260 416 l-101 102 75 5 c393 30 707 293 840 702 12 39 24 72 27 74 2 3 43 -34 91 -81 187 -184 347 -286 539 -345 77 -23 106 -27 228 -27 118 -1 153 3 220 22 158 45 307 137 457 281 62 59 99 88 102 80 3 -8 10 -52 16 -99 35 -257 199 -471 452 -590 133 -62 363 -120 480 -120 20 0 40 -4 43 -10 3 -5 -14 -43 -38 -83 -298 -490 -310 -918 -36 -1288 54 -73 199 -217 271 -268 27 -19 47 -35 45 -37 -1 -1 -63 -10 -137 -19 -216 -27 -458 -96 -484 -137 -18 -29 -3 -28 71 1 99 41 256 79 398 97 110 14 225 39 225 49 0 2 -42 35 -92 73 -289 217 -440 476 -455 777 -11 237 60 463 240 760 l67 110 -93 7 c-118 10 -282 42 -377 75 -324 111 -500 317 -550 643 -10 63 -21 123 -25 132 -5 13 -31 -8 -123 -101 -248 -249 -484 -348 -760 -319 -225 24 -433 140 -673 375 l-117 114 -33 -98z m1660 -898 c177 -42 314 -179 356 -357 22 -93 22 -1253 0 -1346 -42 -178 -179 -315 -356 -357 -95 -22 -1253 -22 -1348 0 -69 17 -169 65 -197 97 -11 11 6 4 42 -17 102 -61 133 -67 369 -65 116 0 242 5 280 10 39 5 168 9 288 10 120 0 248 3 285 5 37 2 103 7 148 9 112 7 167 21 247 63 55 29 76 47 102 88 73 113 70 76 73 810 l3 660 -27 75 c-40 115 -67 149 -154 192 -45 23 -101 41 -140 47 -36 5 -245 10 -465 10 -220 0 -492 4 -605 7 -224 7 -274 2 -366 -42 -94 -45 -156 -126 -189 -250 -16 -59 -28 -355 -38 -959 -2 -137 -8 -240 -15 -255 -8 -19 -11 126 -11 560 -1 635 1 655 55 762 57 113 183 211 310 242 90 22 1261 22 1353 1z m-463 -319 c109 -35 190 -90 310 -210 116 -115 161 -192 196 -329 39 -157 8 -346 -83 -500 -50 -86 -180 -218 -263 -266 -75 -45 -202 -81 -275 -80 l-56 1 45 10 c170 37 275 91 381 197 83 83 134 166 171 276 19 58 23 91 23 190 0 136 -19 209 -82 325 -47 84 -169 206 -253 253 -116 63 -189 82 -325 82 -136 0 -209 -19 -325 -82 -84 -47 -206 -169 -253 -253 -63 -116 -82 -189 -82 -325 0 -99 4 -132 23 -190 37 -110 88 -193 171 -276 115 -114 246 -178 406 -197 l70 -8 -58 -8 c-155 -22 -382 94 -528 267 -192 228 -215 502 -65 757 66 113 234 272 346 328 113 57 189 73 320 68 77 -3 126 -11 186 -30z m-124 -297 c219 -47 367 -263 330 -480 -40 -234 -261 -392 -487 -350 -63 11 -177 59 -189 80 -3 5 12 0 34 -10 134 -65 327 -44 448 48 74 56 126 177 124 291 -1 82 -8 114 -44 190 -49 102 -123 143 -286 157 -176 16 -298 -47 -362 -186 -29 -62 -34 -86 -37 -168 -4 -83 -1 -106 21 -168 13 -40 23 -73 21 -73 -13 0 -66 127 -76 185 -54 288 214 545 503 484z m673 -883 c61 -36 120 -113 129 -166 5 -33 2 -52 -15 -86 -11 -24 -25 -44 -30 -44 -6 0 -5 9 2 21 6 12 9 45 7 75 -8 98 -83 160 -184 152 -126 -11 -194 -143 -130 -252 49 -83 148 -109 235 -60 l46 25 -42 -39 c-88 -81 -173 -78 -260 10 -109 111 -109 194 0 307 74 76 103 93 154 88 23 -2 62 -16 88 -31z m-1202 -973 c-13 -2 -35 -2 -50 0 -16 2 -5 4 22 4 28 0 40 -2 28 -4z m185 -43 c34 -16 62 -32 62 -35 0 -3 -19 4 -42 16 -23 12 -58 27 -77 34 -20 8 -29 14 -21 14 8 1 43 -12 78 -29z m-418 5 c-46 -18 -64 -17 -25 0 17 8 37 14 45 14 8 0 -1 -7 -20 -14z m570 -110 c19 -19 32 -35 29 -35 -3 0 -20 16 -39 35 -19 19 -32 35 -29 35 3 0 20 -16 39 -35z m125 -176 c19 -37 35 -71 35 -75 0 -5 -18 24 -39 63 -21 40 -50 89 -65 110 l-27 38 30 -34 c17 -19 46 -65 66 -102z m1118 104 c-13 -2 -35 -2 -50 0 -16 2 -5 4 22 4 28 0 40 -2 28 -4z m-185 -20 c-10 -2 -26 -2 -35 0 -10 3 -2 5 17 5 19 0 27 -2 18 -5z m-549 -137 c-10 -9 -109 -56 -109 -51 0 6 91 54 104 55 5 0 7 -2 5 -4z m-120 -60 c-13 -12 -170 -126 -174 -126 -3 0 -5 5 -5 12 0 6 3 9 6 5 3 -3 42 21 86 54 44 32 82 59 86 59 3 0 3 -2 1 -4z"/>
 </g>
<g id="layer103" fill="#616161" stroke="none">
 <path d="M1024 3988 c-72 -216 -181 -387 -321 -503 -131 -109 -358 -195 -514 -195 -35 0 -82 -5 -104 -11 l-40 -12 40 -31 c183 -144 330 -338 369 -491 23 -85 21 -212 -4 -282 -45 -130 -149 -256 -308 -375 -90 -68 -94 -72 -71 -81 200 -80 300 -158 365 -287 23 -45 29 -71 32 -147 4 -79 1 -105 -21 -175 -46 -147 -141 -292 -320 -490 -54 -58 -97 -109 -97 -112 0 -3 36 -6 79 -6 300 0 547 -165 700 -467 17 -35 34 -63 37 -63 3 0 67 45 142 100 225 164 384 230 558 230 242 0 396 -136 519 -460 20 -52 40 -99 45 -104 6 -6 46 19 102 62 113 86 244 150 404 196 155 45 393 84 563 94 l133 7 -89 121 c-111 150 -172 284 -173 377 0 29 -11 35 -28 14 -20 -23 17 -157 69 -257 16 -30 56 -91 90 -135 l60 -80 -48 -7 c-26 -3 -111 -14 -187 -22 -242 -28 -493 -94 -643 -169 -38 -19 -106 -63 -152 -97 -46 -34 -84 -60 -86 -58 -1 2 -15 37 -30 78 -15 41 -45 109 -66 150 -156 303 -428 401 -754 271 -100 -40 -171 -83 -306 -182 -60 -45 -111 -80 -113 -78 -1 2 -19 34 -40 71 -83 152 -220 291 -357 363 -74 38 -198 74 -263 76 -23 1 -52 4 -65 8 -24 6 -23 9 43 81 148 161 256 326 303 465 23 66 28 97 28 180 0 92 -3 105 -32 168 -18 38 -47 86 -63 107 -41 52 -140 126 -223 165 l-67 33 70 52 c85 63 192 178 239 255 156 258 78 559 -218 837 l-80 75 77 6 c395 31 707 291 842 702 12 39 24 72 26 74 2 2 52 -43 112 -101 176 -168 352 -277 537 -330 114 -32 315 -33 428 0 157 45 319 144 463 284 50 48 93 88 96 88 3 0 8 -30 12 -67 11 -103 24 -149 75 -258 81 -170 194 -282 376 -370 133 -65 368 -125 486 -125 21 0 41 -5 44 -10 3 -6 -16 -47 -43 -93 -159 -264 -226 -475 -225 -707 1 -194 52 -359 164 -528 54 -82 191 -227 279 -294 38 -29 68 -53 67 -55 -1 -1 -61 -9 -132 -18 -215 -26 -464 -96 -486 -137 -15 -27 -6 -32 28 -15 91 47 253 88 465 117 75 11 151 25 169 33 l33 13 -40 29 c-118 86 -149 114 -228 195 -145 151 -230 305 -267 485 -57 274 13 554 226 904 30 51 55 96 55 101 0 6 -21 10 -47 10 -65 0 -231 26 -328 51 -360 92 -584 321 -630 644 -8 55 -20 117 -25 138 l-11 38 -98 -103 c-223 -234 -439 -340 -691 -340 -259 0 -484 110 -745 364 l-133 129 -38 -113z"/>
 <path d="M1255 3331 c-87 -26 -129 -45 -205 -96 -124 -82 -230 -220 -282 -365 l-23 -65 0 -730 0 -730 23 -65 c74 -206 246 -378 452 -452 l65 -23 730 0 730 0 65 23 c206 74 378 246 452 452 l23 65 0 730 0 730 -23 65 c-74 206 -246 378 -452 452 l-65 23 -715 2 c-659 2 -720 0 -775 -16z m1434 -226 c177 -42 314 -179 356 -357 22 -93 22 -1253 0 -1346 -42 -178 -179 -315 -356 -357 -95 -22 -1253 -22 -1348 0 -177 42 -314 179 -356 357 -22 93 -22 1253 0 1346 42 175 178 314 351 356 90 22 1261 22 1353 1z"/>
 <path d="M1910 2734 c-136 -26 -260 -93 -361 -193 -83 -83 -134 -166 -171 -276 -33 -101 -33 -279 0 -380 37 -110 88 -193 171 -276 83 -83 166 -134 276 -171 101 -33 279 -33 380 0 110 37 193 88 276 171 83 83 134 166 171 276 33 101 33 279 0 380 -37 110 -88 193 -171 276 -130 129 -263 188 -441 194 -58 2 -116 1 -130 -1z m192 -245 c219 -47 367 -263 330 -480 -31 -183 -168 -320 -351 -351 -279 -48 -531 204 -483 483 41 241 268 398 504 348z"/>
 <path d="M2622 1543 c-83 -41 -117 -151 -71 -233 67 -118 231 -118 298 0 46 83 12 194 -72 234 -44 20 -112 20 -155 -1z"/>
 </g>
<g id="layer104" fill="#a1a1a1" stroke="none">
 <path d="M1030 3993 c-103 -311 -296 -541 -538 -639 -92 -37 -169 -54 -288 -64 -61 -5 -121 -13 -134 -18 -23 -8 -22 -10 21 -39 71 -49 231 -222 283 -305 73 -119 100 -203 99 -318 0 -75 -5 -108 -23 -155 -49 -130 -160 -261 -317 -378 l-83 -61 78 -31 c234 -93 368 -275 347 -470 -19 -182 -124 -362 -362 -624 l-87 -96 114 -6 c63 -3 136 -11 162 -17 197 -48 387 -214 509 -445 l35 -67 140 101 c323 236 570 292 784 178 72 -38 160 -129 212 -218 20 -35 57 -116 83 -182 31 -80 50 -117 58 -112 7 4 46 33 88 64 136 103 247 154 454 209 158 42 339 70 498 77 75 3 137 9 137 14 0 4 -34 53 -75 108 -41 55 -88 124 -104 153 -35 64 -71 177 -71 225 0 30 -2 34 -15 23 -19 -16 -19 -37 1 -114 23 -90 65 -171 138 -268 36 -48 66 -91 66 -96 0 -5 -48 -12 -107 -15 -190 -11 -444 -61 -618 -120 -110 -38 -212 -91 -300 -157 -44 -33 -83 -60 -86 -60 -3 0 -25 49 -48 109 -148 387 -422 528 -775 400 -107 -39 -191 -86 -320 -181 -59 -44 -113 -81 -120 -84 -6 -2 -22 17 -35 42 -70 130 -197 273 -315 352 -93 61 -213 102 -327 109 -49 3 -89 8 -89 10 0 3 30 37 66 76 244 266 365 521 336 709 -25 162 -131 290 -320 383 l-63 32 90 71 c225 178 330 399 288 606 -32 155 -117 295 -273 451 -51 51 -90 96 -87 99 4 3 35 6 69 6 74 0 208 29 294 64 243 99 452 339 545 628 l29 86 107 -100 c282 -263 493 -362 764 -361 247 1 449 94 672 309 53 51 98 93 99 91 1 -1 7 -42 13 -92 43 -326 253 -560 601 -669 92 -29 288 -66 351 -66 21 0 39 -2 39 -5 0 -2 -19 -35 -41 -72 -109 -178 -195 -382 -223 -533 -18 -95 -21 -269 -5 -356 43 -244 190 -474 417 -651 46 -36 81 -67 79 -70 -2 -2 -56 -10 -118 -18 -145 -19 -203 -30 -310 -60 -136 -39 -198 -69 -199 -97 0 -4 21 2 46 12 123 53 271 90 460 114 121 16 184 31 184 46 0 4 -24 23 -52 42 -169 114 -309 271 -393 443 -79 162 -90 209 -90 405 0 149 3 175 27 261 36 130 104 281 193 429 52 88 71 127 62 132 -7 4 -34 8 -62 8 -66 0 -222 26 -315 52 -357 99 -577 330 -620 651 -13 98 -28 159 -39 155 -4 -2 -33 -32 -66 -68 -157 -173 -339 -295 -514 -342 -107 -29 -295 -29 -403 0 -186 50 -346 151 -534 334 -72 70 -134 128 -137 128 -3 0 -20 -44 -37 -97z"/>
 <path d="M1255 3331 c-87 -26 -129 -45 -205 -96 -124 -82 -230 -220 -282 -365 l-23 -65 0 -730 0 -730 23 -65 c74 -206 246 -378 452 -452 l65 -23 730 0 730 0 65 23 c206 74 378 246 452 452 l23 65 0 730 0 730 -23 65 c-74 206 -246 378 -452 452 l-65 23 -715 2 c-659 2 -720 0 -775 -16z m1434 -226 c177 -42 314 -179 356 -357 22 -93 22 -1253 0 -1346 -42 -178 -179 -315 -356 -357 -95 -22 -1253 -22 -1348 0 -177 42 -314 179 -356 357 -22 93 -22 1253 0 1346 42 175 178 314 351 356 90 22 1261 22 1353 1z"/>
 <path d="M1910 2734 c-136 -26 -260 -93 -361 -193 -83 -83 -134 -166 -171 -276 -33 -101 -33 -279 0 -380 37 -110 88 -193 171 -276 83 -83 166 -134 276 -171 101 -33 279 -33 380 0 110 37 193 88 276 171 83 83 134 166 171 276 33 101 33 279 0 380 -37 110 -88 193 -171 276 -130 129 -263 188 -441 194 -58 2 -116 1 -130 -1z m192 -245 c219 -47 367 -263 330 -480 -31 -183 -168 -320 -351 -351 -279 -48 -531 204 -483 483 41 241 268 398 504 348z"/>
 <path d="M2622 1543 c-83 -41 -117 -151 -71 -233 67 -118 231 -118 298 0 46 83 12 194 -72 234 -44 20 -112 20 -155 -1z"/>
 </g>
<g id="layer105" fill="#e6de8a" stroke="none">
 <path d="M1035 4002 c-127 -399 -376 -638 -735 -706 -45 -9 -108 -16 -139 -16 -59 0 -101 -8 -101 -19 1 -3 26 -24 57 -46 112 -80 242 -239 303 -370 85 -180 79 -334 -17 -492 -58 -95 -125 -166 -239 -254 -57 -44 -104 -82 -104 -83 0 -2 28 -14 62 -26 165 -60 297 -184 338 -318 64 -207 -41 -449 -334 -772 l-86 -95 92 -7 c172 -14 277 -49 397 -131 101 -69 217 -208 283 -339 l33 -66 135 99 c269 197 479 268 671 225 185 -41 314 -178 415 -442 l47 -124 46 35 c106 81 211 145 291 178 172 71 434 127 702 150 l148 12 -83 110 c-97 130 -132 198 -160 312 -14 57 -24 80 -31 73 -15 -15 20 -147 62 -231 21 -41 65 -111 100 -156 34 -45 62 -84 62 -86 0 -2 -48 -7 -107 -11 -122 -8 -351 -45 -471 -76 -201 -51 -337 -112 -466 -210 -44 -33 -80 -59 -82 -57 -1 1 -20 49 -43 107 -54 140 -103 221 -181 301 -111 113 -220 154 -389 146 -173 -8 -313 -68 -527 -223 l-128 -93 -31 57 c-94 175 -246 328 -396 397 -72 33 -163 55 -258 63 l-79 7 89 100 c170 191 269 353 304 495 25 103 18 226 -18 304 -52 113 -152 206 -290 271 l-68 32 68 50 c84 63 187 169 237 244 88 134 111 299 61 456 -41 132 -117 242 -264 387 -50 49 -91 90 -91 92 0 2 30 4 68 4 74 0 208 27 292 59 103 39 210 110 300 200 124 124 208 263 265 439 15 45 29 82 32 82 3 0 56 -48 117 -107 61 -60 141 -129 178 -156 211 -150 437 -218 651 -196 210 21 393 117 589 307 l106 104 7 -59 c15 -128 36 -200 86 -303 45 -90 64 -117 138 -190 157 -156 344 -236 646 -277 66 -9 122 -18 124 -19 2 -2 -21 -45 -52 -96 -98 -166 -154 -296 -198 -458 -20 -73 -23 -108 -23 -245 1 -145 3 -168 28 -250 33 -109 88 -221 153 -312 58 -82 187 -212 271 -273 73 -52 74 -52 -78 -70 -236 -28 -476 -98 -493 -145 -5 -13 0 -12 31 4 97 48 273 93 453 116 118 14 199 32 199 44 0 3 -30 26 -65 50 -182 122 -346 321 -420 511 -59 151 -76 367 -42 525 35 156 125 362 235 540 l50 80 -56 7 c-32 4 -94 12 -140 18 -181 23 -384 96 -508 181 -167 115 -278 302 -309 523 -24 164 -11 161 -139 32 -158 -159 -304 -252 -476 -302 -89 -26 -307 -26 -400 -1 -95 26 -274 117 -366 185 -43 32 -131 109 -195 170 l-116 111 -28 -87z"/>
 <path d="M1255 3331 c-87 -26 -129 -45 -205 -96 -124 -82 -230 -220 -282 -365 l-23 -65 0 -730 0 -730 23 -65 c74 -206 246 -378 452 -452 l65 -23 730 0 730 0 65 23 c206 74 378 246 452 452 l23 65 0 730 0 730 -23 65 c-74 206 -246 378 -452 452 l-65 23 -715 2 c-659 2 -720 0 -775 -16z m1434 -226 c177 -42 314 -179 356 -357 22 -93 22 -1253 0 -1346 -42 -178 -179 -315 -356 -357 -95 -22 -1253 -22 -1348 0 -177 42 -314 179 -356 357 -22 93 -22 1253 0 1346 42 175 178 314 351 356 90 22 1261 22 1353 1z"/>
 <path d="M1910 2734 c-136 -26 -260 -93 -361 -193 -83 -83 -134 -166 -171 -276 -33 -101 -33 -279 0 -380 37 -110 88 -193 171 -276 83 -83 166 -134 276 -171 101 -33 279 -33 380 0 110 37 193 88 276 171 83 83 134 166 171 276 33 101 33 279 0 380 -37 110 -88 193 -171 276 -130 129 -263 188 -441 194 -58 2 -116 1 -130 -1z m192 -245 c219 -47 367 -263 330 -480 -31 -183 -168 -320 -351 -351 -279 -48 -531 204 -483 483 41 241 268 398 504 348z"/>
 <path d="M2622 1543 c-83 -41 -117 -151 -71 -233 67 -118 231 -118 298 0 46 83 12 194 -72 234 -44 20 -112 20 -155 -1z"/>
 </g>
<g id="layer106" fill="#f8f8f8" stroke="none">
 <path d="M1035 4002 c-103 -323 -300 -556 -554 -655 -94 -36 -236 -67 -316 -67 -63 0 -105 -8 -105 -19 1 -3 26 -24 57 -46 112 -80 242 -239 303 -370 85 -180 79 -334 -17 -492 -58 -95 -125 -166 -239 -254 -57 -44 -104 -82 -104 -83 0 -2 28 -14 62 -26 62 -22 167 -86 220 -132 81 -71 138 -198 138 -307 0 -174 -116 -389 -349 -646 l-91 -100 92 -7 c172 -14 277 -49 397 -131 100 -69 216 -207 283 -338 l34 -67 134 99 c269 197 479 268 671 225 185 -41 314 -178 414 -439 32 -86 52 -124 59 -119 97 74 179 133 211 151 169 98 482 176 824 204 l141 12 -84 112 c-98 130 -130 194 -159 310 -14 57 -24 80 -31 73 -15 -15 20 -147 62 -231 21 -41 65 -111 100 -156 34 -45 62 -84 62 -86 0 -2 -48 -7 -107 -11 -122 -8 -351 -45 -471 -76 -201 -51 -337 -112 -466 -210 -44 -33 -81 -59 -82 -57 -1 1 -21 49 -43 107 -54 140 -103 221 -181 301 -102 104 -210 149 -361 149 -168 0 -343 -71 -558 -229 l-125 -90 -31 57 c-94 175 -246 328 -396 397 -72 33 -163 55 -258 63 l-79 7 85 95 c168 189 274 360 308 500 25 103 18 226 -18 304 -52 113 -152 206 -290 271 l-69 32 70 51 c89 66 198 181 244 257 56 93 78 170 78 274 0 193 -84 354 -289 555 -50 49 -91 90 -91 92 0 2 30 4 68 4 91 0 259 42 357 90 231 112 406 325 499 608 15 45 31 82 35 82 3 0 42 -36 86 -81 193 -195 392 -316 603 -365 97 -23 267 -20 367 6 169 43 317 133 477 288 l106 104 7 -59 c15 -128 36 -200 86 -303 45 -90 64 -117 138 -190 99 -97 190 -154 334 -205 97 -35 250 -68 370 -80 37 -4 67 -10 67 -13 0 -3 -24 -46 -54 -96 -109 -184 -171 -337 -206 -506 -42 -200 -14 -422 74 -600 77 -157 213 -318 359 -425 79 -58 80 -57 -73 -75 -178 -21 -366 -67 -452 -111 -38 -19 -55 -49 -20 -34 133 58 282 97 462 120 124 16 200 33 200 44 0 3 -30 26 -67 50 -91 62 -212 178 -283 273 -149 197 -219 444 -191 669 26 205 111 417 262 654 l38 60 -57 7 c-31 4 -94 12 -140 18 -181 23 -384 96 -506 180 -170 116 -279 301 -311 523 -24 164 -11 161 -138 33 -214 -214 -404 -311 -637 -323 -172 -9 -325 32 -498 134 -102 60 -169 113 -303 241 l-116 111 -28 -87z"/>
 </g>

</svg>