<!DOCTYPE svg PUBLIC "-//W3C//DTD SVG 20010904//EN" "http://www.w3.org/TR/2001/REC-SVG-20010904/DTD/svg10.dtd">
<svg version="1.0" xmlns="http://www.w3.org/2000/svg" width="404px" height="415px" viewBox="0 0 4040 4150" preserveAspectRatio="xMidYMid meet">
<g id="layer101" fill="#030202" stroke="none">
<path d="M1027 4112 c-28 -29 -45 -62 -71 -137 -125 -372 -288 -529 -626 -605 -47 -11 -118 -20 -158 -20 -73 0 -73 0 -120 -45 l-47 -45 56 -52 c31 -29 83 -78 116 -108 95 -88 189 -243 224 -370 17 -64 15 -186 -6 -255 -19 -67 -78 -172 -127 -226 -18 -20 -69 -63 -113 -97 -44 -33 -96 -76 -114 -96 l-35 -36 34 -35 c18 -19 50 -40 69 -46 49 -16 106 -44 173 -87 138 -89 185 -290 114 -492 -38 -109 -124 -245 -239 -382 -116 -137 -152 -186 -144 -194 3 -3 48 -9 100 -14 261 -25 357 -63 501 -199 68 -66 103 -112 171 -234 28 -49 55 -89 60 -88 6 0 71 46 146 101 149 109 248 164 361 201 61 20 93 24 193 24 105 0 127 -3 172 -24 154 -69 249 -187 337 -420 57 -148 41 -142 158 -55 56 41 133 91 171 111 194 97 564 176 876 186 l73 2 -92 125 c-51 69 -100 141 -110 160 -31 61 -60 161 -61 214 -1 50 -1 52 73 128 41 43 90 105 109 138 19 33 41 73 51 89 13 22 36 36 105 61 100 36 274 75 378 85 157 14 201 25 231 56 l29 30 -36 32 c-19 18 -63 51 -96 75 -77 55 -173 151 -226 229 -57 81 -122 222 -148 318 -29 110 -32 315 -5 430 41 177 123 363 232 525 30 45 54 85 54 89 0 4 -17 23 -37 43 -36 33 -43 36 -123 42 -219 17 -433 87 -590 191 -71 47 -98 78 -144 160 -54 98 -78 170 -96 294 l-19 125 -46 45 -46 46 -92 -97 c-231 -243 -472 -352 -740 -335 -245 16 -477 138 -712 376 -55 56 -102 101 -105 101 -3 0 -23 -17 -43 -38z"/>
</g>
<g id="layer102" fill="#ab1e1e" stroke="none">
<path d="M1057 4083 c-2 -5 -19 -53 -37 -108 -118 -361 -356 -594 -679 -666 -47 -10 -109 -19 -138 -19 -29 0 -76 -5 -105 -11 l-53 -12 30 -21 c56 -39 206 -191 255 -256 201 -273 192 -527 -27 -760 -42 -45 -116 -111 -165 -148 l-89 -66 70 -27 c248 -95 380 -284 350 -499 -12 -83 -23 -118 -67 -205 -62 -125 -128 -214 -289 -391 -46 -51 -83 -94 -83 -96 0 -3 53 -7 118 -10 188 -9 318 -63 454 -187 80 -74 153 -171 203 -269 20 -39 39 -72 41 -72 3 0 63 43 134 95 227 167 357 224 528 233 267 13 426 -115 552 -443 24 -60 46 -114 50 -118 4 -5 53 25 109 67 56 41 134 91 174 109 196 93 502 160 791 175 l129 7 -86 115 c-48 63 -100 142 -116 176 -31 65 -61 165 -61 208 0 18 -4 24 -15 20 -21 -9 -19 -59 6 -140 29 -94 56 -144 133 -249 l67 -90 -28 -6 c-15 -4 -55 -7 -88 -6 l-60 0 72 7 c40 3 75 9 78 12 3 3 -24 45 -61 94 -75 99 -115 179 -140 278 -9 37 -19 65 -23 64 -3 -2 -30 -16 -60 -32 -65 -34 -121 -54 -178 -65 -50 -10 -841 5 -893 16 -19 5 172 10 425 13 449 5 462 6 525 28 206 74 378 246 452 452 l23 65 0 730 0 730 -23 65 c-74 206 -246 378 -452 452 l-65 23 -730 0 -730 0 -65 -23 c-206 -74 -378 -246 -452 -452 l-23 -65 0 -730 0 -730 23 -65 c74 -206 247 -379 452 -452 56 -19 91 -23 255 -28 l190 -5 -180 -5 c-197 -5 -253 3 -360 57 -156 79 -302 227 -370 375 -52 113 -53 131 -75 928 -17 623 -17 634 13 718 38 109 98 202 199 307 93 98 187 168 274 205 109 48 152 50 867 50 737 0 737 0 864 -61 149 -71 350 -273 417 -419 54 -119 57 -142 56 -585 -1 -472 -14 -987 -25 -1006 -6 -9 -3 -10 11 -4 124 54 318 104 468 121 l58 7 -63 55 c-478 417 -555 889 -237 1455 28 49 48 90 46 93 -3 2 -54 13 -115 24 -284 51 -456 140 -632 326 -114 121 -189 257 -216 397 l-6 28 -72 -67 c-273 -253 -554 -338 -857 -260 -92 24 -273 113 -355 176 -38 29 -114 96 -167 148 l-98 96 -11 -32 c-20 -57 -88 -192 -126 -250 -55 -83 -246 -276 -327 -329 -39 -25 -97 -58 -131 -73 -61 -28 -215 -70 -256 -70 -19 0 -9 -14 58 -82 131 -136 209 -269 238 -404 19 -87 18 -133 0 -213 -28 -115 -77 -192 -217 -335 -69 -72 -126 -131 -125 -131 1 -1 34 -24 73 -53 220 -160 298 -330 249 -539 -34 -143 -147 -329 -295 -487 -49 -52 -90 -97 -90 -100 0 -2 37 -9 83 -16 90 -13 199 -54 274 -103 112 -74 262 -239 331 -365 l27 -49 115 85 c106 77 190 130 190 117 0 -2 -15 -12 -32 -21 -18 -9 -88 -57 -156 -106 -68 -50 -124 -89 -126 -87 -1 2 -19 34 -40 72 -82 148 -216 284 -356 360 -80 43 -149 64 -258 76 -46 5 -86 11 -89 15 -3 3 24 37 60 76 389 420 439 786 139 1009 -38 28 -97 63 -132 79 l-64 28 77 58 c244 183 355 418 303 641 -35 148 -150 325 -296 457 -38 34 -67 64 -65 68 2 4 35 7 72 7 80 0 239 40 330 82 231 108 423 338 513 616 12 39 24 72 26 74 2 3 41 -31 87 -75 223 -216 401 -321 617 -366 117 -25 267 -20 380 12 155 44 352 170 484 310 37 40 69 70 71 68 2 -2 7 -35 10 -73 13 -144 79 -304 173 -420 91 -113 247 -211 427 -270 89 -29 283 -65 351 -65 24 0 44 -2 44 -3 0 -2 -26 -46 -57 -98 -285 -472 -302 -882 -51 -1252 56 -82 167 -198 261 -270 42 -33 76 -62 74 -64 -2 -2 -58 -10 -125 -18 -188 -23 -332 -58 -453 -109 -32 -13 -57 -42 -46 -52 2 -2 35 10 73 26 98 41 235 75 404 99 149 22 210 37 210 50 0 5 -19 21 -42 36 -65 43 -198 159 -245 213 -161 188 -240 373 -250 588 -12 246 60 475 242 775 30 50 55 94 55 100 0 5 -23 9 -51 9 -76 0 -248 28 -347 55 -48 14 -137 50 -197 80 -234 116 -371 300 -410 550 -19 119 -33 177 -43 173 -4 -2 -37 -34 -72 -73 -240 -261 -522 -388 -790 -355 -236 28 -436 137 -666 362 -66 65 -123 118 -127 118 -3 0 -8 -3 -10 -7z m1632 -978 c177 -42 314 -179 356 -357 22 -93 22 -1253 0 -1346 -42 -178 -179 -315 -356 -357 -95 -22 -1253 -22 -1348 0 -69 17 -169 65 -197 97 -11 11 7 4 42 -17 103 -62 142 -69 374 -66 113 1 234 6 270 10 36 5 160 9 275 10 285 2 502 14 580 31 64 14 153 59 189 95 36 36 81 124 95 186 7 27 11 289 11 684 l0 640 -25 75 c-39 113 -67 148 -155 193 -46 23 -100 41 -137 47 -33 4 -281 10 -550 12 -798 5 -781 5 -838 -16 -160 -60 -234 -168 -255 -374 -6 -53 -14 -320 -19 -592 -5 -300 -13 -505 -19 -520 -8 -18 -11 144 -11 560 -1 635 1 655 55 762 57 113 183 211 310 242 90 22 1261 22 1353 1z m-462 -319 c108 -35 187 -89 311 -212 86 -87 109 -116 142 -186 100 -209 89 -438 -31 -641 -50 -86 -180 -218 -263 -266 -75 -45 -202 -81 -275 -80 l-56 1 45 10 c170 37 275 91 381 197 83 83 134 166 171 276 19 58 23 91 23 190 0 136 -19 209 -82 325 -47 84 -169 206 -253 253 -116 63 -189 82 -325 82 -136 0 -209 -19 -325 -82 -84 -47 -206 -169 -253 -253 -63 -116 -82 -189 -82 -325 0 -99 4 -132 23 -190 37 -110 88 -193 171 -276 113 -113 225 -169 386 -194 l80 -12 -56 -7 c-120 -16 -319 68 -450 191 -166 155 -252 363 -230 555 20 171 81 289 225 436 136 140 248 206 394 232 85 16 239 4 329 -24z m-125 -297 c219 -47 367 -263 330 -480 -40 -234 -261 -392 -487 -350 -63 11 -177 59 -189 79 -3 5 11 1 32 -9 99 -49 262 -50 365 -1 83 38 127 79 165 149 61 115 61 252 0 380 -49 105 -127 147 -295 160 -90 6 -146 -4 -223 -43 -141 -70 -208 -282 -150 -471 26 -85 25 -89 -10 -23 -164 314 116 682 462 609z m643 -868 c52 -23 94 -60 129 -110 35 -50 39 -120 11 -169 -21 -35 -43 -45 -24 -11 6 12 9 45 7 75 -8 98 -83 160 -184 152 -126 -11 -194 -143 -130 -252 49 -83 148 -109 235 -60 l46 25 -42 -39 c-87 -81 -174 -77 -260 10 -109 111 -109 194 0 307 92 94 133 108 212 72z m-1735 -286 c0 -3 -2 -5 -5 -5 -3 0 -5 2 -5 5 0 3 2 5 5 5 3 0 5 -2 5 -5z m1830 -50 c0 -3 -2 -5 -5 -5 -3 0 -5 2 -5 5 0 3 2 5 5 5 3 0 5 -2 5 -5z m-1790 -30 c0 -3 -2 -5 -5 -5 -3 0 -5 2 -5 5 0 3 2 5 5 5 3 0 5 -2 5 -5z m25 -35 c3 -5 4 -10 1 -10 -3 0 -8 5 -11 10 -3 6 -4 10 -1 10 3 0 8 -4 11 -10z m503 -587 c-15 -2 -42 -2 -60 0 -18 2 -6 4 27 4 33 0 48 -2 33 -4z m-99 -7 c-2 -2 -26 -6 -54 -9 -34 -4 -42 -3 -25 3 25 8 87 13 79 6z m174 -3 c-7 -2 -21 -2 -30 0 -10 3 -4 5 12 5 17 0 24 -2 18 -5z m102 -32 c119 -56 217 -157 286 -293 44 -87 34 -84 -14 4 -84 155 -171 239 -303 293 -32 14 -52 25 -44 25 8 0 42 -13 75 -29z m-415 4 c-46 -18 -64 -17 -25 0 17 8 37 14 45 14 8 0 -1 -7 -20 -14z m-80 -30 c-14 -8 -29 -14 -35 -14 -5 0 1 6 15 14 14 8 30 14 35 14 6 0 -1 -6 -15 -14z m-55 -25 c-3 -5 -11 -10 -16 -10 -6 0 -7 5 -4 10 3 6 11 10 16 10 6 0 7 -4 4 -10z m1843 -137 c-10 -2 -26 -2 -35 0 -10 3 -2 5 17 5 19 0 27 -2 18 -5z m-103 -14 c-22 -4 -51 -8 -65 -7 -35 1 34 15 75 16 25 0 23 -2 -10 -9z m-102 -16 c-7 -2 -19 -2 -25 0 -7 3 -2 5 12 5 14 0 19 -2 13 -5z m-50 -10 c-7 -2 -19 -2 -25 0 -7 3 -2 5 12 5 14 0 19 -2 13 -5z m-108 -24 c-38 -10 -74 -17 -80 -15 -12 3 103 34 130 34 11 0 -11 -8 -50 -19z m-98 -26 c-4 -3 -10 -3 -14 0 -3 4 0 7 7 7 7 0 10 -3 7 -7z m-30 -10 c-4 -3 -10 -3 -14 0 -3 4 0 7 7 7 7 0 10 -3 7 -7z m-53 -17 c-50 -22 -82 -27 -39 -7 22 11 47 20 55 20 8 0 1 -6 -16 -13z m-85 -30 c-10 -9 -109 -56 -109 -51 0 6 91 54 104 55 5 0 7 -2 5 -4z m-329 -71 c0 -5 -5 -3 -10 5 -5 8 -10 20 -10 25 0 6 5 3 10 -5 5 -8 10 -19 10 -25z m205 7 c-35 -29 -163 -122 -169 -122 -3 0 -6 5 -6 12 0 6 3 9 6 5 3 -3 42 21 86 54 44 32 82 59 86 59 3 0 2 -4 -3 -8z m-181 -72 c5 -17 4 -20 -2 -10 -5 8 -13 26 -16 40 -5 17 -4 20 2 10 5 -8 13 -26 16 -40z"/>
</g>
<g id="layer103" fill="#cba151" stroke="none">
<path d="M1255 3331 c-87 -26 -129 -45 -205 -96 -124 -82 -230 -220 -282 -365 l-23 -65 0 -730 0 -730 23 -65 c74 -206 246 -378 452 -452 l65 -23 730 0 730 0 65 23 c206 74 378 246 452 452 l23 65 0 730 0 730 -23 65 c-74 206 -246 378 -452 452 l-65 23 -715 2 c-659 2 -720 0 -775 -16z m1434 -226 c177 -42 314 -179 356 -357 22 -93 22 -1253 0 -1346 -42 -178 -179 -315 -356 -357 -95 -22 -1253 -22 -1348 0 -177 42 -314 179 -356 357 -22 93 -22 1253 0 1346 42 175 178 314 351 356 90 22 1261 22 1353 1z"/>
<path d="M1910 2734 c-136 -26 -260 -93 -361 -193 -83 -83 -134 -166 -171 -276 -33 -101 -33 -279 0 -380 37 -110 88 -193 171 -276 83 -83 166 -134 276 -171 101 -33 279 -33 380 0 110 37 193 88 276 171 83 83 134 166 171 276 33 101 33 279 0 380 -37 110 -88 193 -171 276 -130 129 -263 188 -441 194 -58 2 -116 1 -130 -1z m192 -245 c219 -47 367 -263 330 -480 -31 -183 -168 -320 -351 -351 -279 -48 -531 204 -483 483 41 241 268 398 504 348z"/>
<path d="M2622 1543 c-83 -41 -117 -151 -71 -233 67 -118 231 -118 298 0 46 83 12 194 -72 234 -44 20 -112 20 -155 -1z"/>
</g>
<g id="layer104" fill="#a1a1a1" stroke="none">
<path d="M1057 4083 c-2 -5 -19 -53 -37 -108 -118 -361 -356 -594 -679 -666 -47 -10 -109 -19 -138 -19 -29 0 -76 -5 -105 -11 l-53 -12 30 -21 c56 -39 206 -191 255 -256 201 -273 192 -527 -27 -760 -42 -45 -116 -111 -165 -148 l-89 -66 70 -27 c248 -95 380 -284 350 -499 -12 -83 -23 -118 -67 -205 -62 -125 -128 -214 -289 -391 -46 -51 -83 -94 -83 -96 0 -3 53 -7 118 -10 188 -9 318 -63 454 -187 80 -74 153 -171 203 -269 20 -39 39 -72 41 -72 3 0 63 43 134 95 227 167 357 224 528 233 267 13 426 -115 552 -443 24 -60 46 -114 50 -118 4 -5 53 25 109 67 56 41 134 91 174 109 196 93 502 160 791 175 l129 7 -86 115 c-48 63 -100 142 -116 176 -31 65 -61 165 -61 208 0 18 -4 24 -15 20 -21 -9 -19 -59 6 -140 29 -94 56 -144 133 -249 75 -102 75 -102 -29 -104 -84 -2 -323 -40 -454 -72 -223 -55 -347 -109 -480 -210 -45 -34 -83 -60 -85 -58 -2 2 -18 42 -36 89 -103 272 -235 408 -437 456 -185 44 -425 -35 -681 -225 -62 -46 -114 -82 -116 -80 -1 2 -19 34 -40 72 -82 148 -216 284 -356 360 -80 43 -149 64 -258 76 -46 5 -86 11 -89 15 -3 3 24 37 60 76 389 420 439 786 139 1009 -38 28 -97 63 -132 79 l-64 28 77 58 c244 183 355 418 303 641 -35 148 -150 325 -296 457 -38 34 -67 64 -65 68 2 4 35 7 72 7 80 0 239 40 330 82 231 108 423 338 513 616 12 39 24 72 26 74 2 3 41 -31 87 -75 223 -216 401 -321 617 -366 117 -25 267 -20 380 12 155 44 352 170 484 310 37 40 69 70 71 68 2 -2 7 -35 10 -73 13 -144 79 -304 173 -420 91 -113 247 -211 427 -270 89 -29 283 -65 351 -65 24 0 44 -2 44 -3 0 -2 -26 -46 -57 -98 -285 -472 -302 -882 -51 -1252 56 -82 167 -198 261 -270 42 -33 76 -62 74 -64 -2 -2 -58 -10 -125 -18 -188 -23 -332 -58 -453 -109 -32 -13 -57 -42 -46 -52 2 -2 35 10 73 26 98 41 235 75 404 99 149 22 210 37 210 50 0 5 -19 21 -42 36 -65 43 -198 159 -245 213 -161 188 -240 373 -250 588 -12 246 60 475 242 775 30 50 55 94 55 100 0 5 -23 9 -51 9 -76 0 -248 28 -347 55 -48 14 -137 50 -197 80 -234 116 -371 300 -410 550 -19 119 -33 177 -43 173 -4 -2 -37 -34 -72 -73 -240 -261 -522 -388 -790 -355 -236 28 -436 137 -666 362 -66 65 -123 118 -127 118 -3 0 -8 -3 -10 -7z"/>
</g>
<g id="layer105" fill="#f8f8f8" stroke="none">
<path d="M1035 4002 c-128 -401 -377 -639 -738 -707 -47 -9 -96 -13 -110 -10 -14 4 -52 1 -84 -5 l-58 -13 29 -21 c147 -107 275 -254 341 -391 91 -189 87 -339 -15 -510 -47 -79 -167 -199 -269 -270 l-84 -59 64 -23 c86 -32 119 -50 190 -103 154 -117 210 -283 158 -470 -41 -151 -154 -326 -330 -514 -105 -113 -105 -113 21 -114 268 -2 518 -177 662 -464 l33 -66 135 99 c269 197 479 268 671 225 185 -41 314 -178 415 -442 32 -84 51 -121 58 -116 97 74 179 133 211 151 169 98 504 181 815 201 80 5 146 10 148 10 5 0 -61 94 -109 153 -62 77 -105 168 -131 272 -15 58 -25 82 -32 75 -15 -15 20 -147 62 -231 21 -41 66 -112 100 -159 l63 -85 -98 -7 c-299 -23 -628 -102 -803 -194 -36 -19 -101 -61 -144 -94 -44 -33 -80 -59 -82 -57 -1 1 -20 49 -43 107 -54 140 -103 221 -181 301 -111 113 -220 154 -389 146 -171 -8 -317 -70 -530 -226 l-125 -90 -31 57 c-101 188 -273 352 -432 412 -70 26 -188 50 -249 50 -24 0 -44 2 -44 5 0 3 45 57 100 121 224 261 307 434 298 629 -3 71 -10 102 -31 149 -51 110 -135 191 -278 266 l-70 37 68 56 c220 179 312 335 313 524 0 192 -77 343 -280 549 -50 50 -87 94 -83 97 3 4 30 7 59 7 114 0 283 49 404 117 96 55 243 192 303 284 55 85 112 204 142 297 15 45 30 82 33 82 4 0 43 -36 87 -81 193 -195 392 -316 603 -365 97 -23 266 -20 367 5 163 42 340 150 499 304 44 42 80 76 81 75 1 -2 8 -39 14 -83 18 -118 37 -180 89 -280 36 -71 64 -108 132 -175 156 -155 342 -235 645 -277 66 -9 122 -18 124 -19 2 -2 -21 -45 -52 -96 -98 -166 -154 -296 -198 -458 -20 -73 -23 -108 -23 -245 1 -145 3 -168 28 -250 67 -222 207 -417 414 -579 34 -27 61 -51 59 -52 -2 -2 -66 -13 -143 -24 -166 -25 -203 -33 -314 -66 -100 -31 -155 -57 -163 -79 -5 -13 0 -12 31 4 100 50 279 95 461 116 127 15 191 30 191 45 0 4 -12 16 -27 25 -193 123 -351 300 -438 489 -97 208 -105 466 -24 707 29 87 136 307 197 404 l50 80 -56 7 c-32 4 -94 12 -140 18 -181 23 -384 96 -508 181 -166 114 -283 312 -305 514 -10 95 -26 158 -38 153 -4 -2 -43 -42 -87 -90 -223 -246 -469 -361 -738 -345 -130 8 -196 26 -332 92 -135 65 -234 138 -385 283 l-116 111 -28 -87z"/>
</g>


</svg>